<?xml version="1.0" standalone="no"?>
<!DOCTYPE svg PUBLIC "-//W3C//DTD SVG 20010904//EN"
 "http://www.w3.org/TR/2001/REC-SVG-20010904/DTD/svg10.dtd">
<svg version="1.0" xmlns="http://www.w3.org/2000/svg"
 width="512.000000pt" height="512.000000pt" viewBox="0 0 512.000000 512.000000"
 preserveAspectRatio="xMidYMid meet">
<metadata>
Created by potrace 1.14, written by Peter Selinger 2001-2017
</metadata>
<g transform="translate(0.000000,512.000000) scale(0.100000,-0.100000)"
fill="#000000" stroke="none">
<path d="M2547 3740 c-10 -12 -23 -18 -29 -14 -6 4 -8 3 -5 -2 6 -10 -47 -50
-73 -56 -8 -2 -20 -9 -25 -16 -6 -8 -26 -14 -45 -15 -22 -1 -41 -10 -52 -23
-10 -12 -30 -25 -44 -28 -43 -11 -87 -52 -112 -103 -13 -26 -28 -55 -32 -63
-4 -8 -16 -13 -26 -12 -11 2 -15 0 -11 -4 4 -4 -3 -14 -15 -22 -13 -7 -15 -11
-6 -8 12 3 16 -1 15 -14 -1 -14 -5 -16 -13 -9 -9 8 -11 5 -7 -10 7 -28 -28
-83 -49 -77 -10 2 -16 0 -12 -5 3 -5 -1 -9 -10 -9 -8 0 -16 -5 -18 -12 -5 -13
-68 45 -68 62 0 6 -5 10 -10 10 -14 0 0 -25 34 -64 27 -30 33 -41 17 -32 -5 3
-11 -4 -14 -15 -3 -13 -11 -19 -19 -17 -8 4 -14 -3 -14 -19 -1 -13 -10 -33
-19 -43 -9 -10 -14 -24 -10 -30 4 -6 0 -19 -8 -28 -9 -9 -18 -36 -21 -60 -4
-37 -38 -102 -52 -102 -3 0 -12 7 -21 15 -25 25 -34 6 -12 -24 14 -20 19 -36
14 -50 -7 -24 -32 -23 -27 0 2 8 0 11 -4 7 -9 -9 -36 11 -29 22 2 4 -4 15 -15
25 -29 26 -25 0 6 -40 14 -19 35 -37 45 -40 16 -5 18 -10 8 -21 -9 -11 -8 -14
5 -14 9 0 16 -5 16 -10 0 -7 6 -8 16 -2 21 12 55 3 71 -17 22 -29 15 -41 -24
-41 -25 0 -33 3 -25 9 11 6 9 9 -6 13 -15 4 -19 2 -15 -8 3 -8 0 -14 -6 -14
-6 0 -11 9 -11 19 0 11 -5 23 -11 27 -7 4 -10 -4 -7 -22 3 -30 -21 -42 -30
-15 -3 9 0 11 8 6 9 -6 11 -4 5 4 -4 7 -17 10 -30 7 -20 -5 -22 -3 -17 16 4
15 2 19 -7 13 -7 -4 -11 -15 -8 -25 5 -18 -19 -37 -31 -25 -3 3 1 5 8 5 7 0
11 3 8 6 -4 3 -15 1 -25 -4 -22 -12 -49 0 -39 17 4 5 31 25 61 43 30 18 55 36
55 40 0 4 -9 12 -20 18 -17 9 -22 7 -29 -13 -8 -20 -29 -37 -46 -37 -9 0 -2
86 7 98 12 14 2 160 -12 177 -6 7 -4 20 6 34 21 29 27 126 8 110 -9 -7 -14 -7
-14 -1 0 5 7 15 15 22 8 7 12 16 10 21 -3 4 3 26 15 48 11 22 20 57 20 78 l-1
38 -18 -22 c-11 -13 -23 -23 -28 -23 -5 0 -16 -8 -25 -17 -23 -24 -40 -38 -66
-52 -47 -25 -9 16 74 78 46 35 84 66 84 68 0 2 -5 1 -11 -3 -7 -4 -9 0 -5 14
4 11 2 23 -3 26 -13 9 -3 36 12 33 7 -1 12 5 11 13 -1 9 6 22 14 30 14 13 15
12 8 -5 -7 -18 -6 -18 15 1 27 24 70 84 47 66 -10 -8 -18 -9 -22 -3 -4 6 -15
2 -26 -9 -11 -11 -26 -20 -32 -20 -10 0 -9 3 1 9 11 7 11 10 0 17 -7 4 -14 3
-17 -4 -2 -7 -13 -17 -24 -23 -17 -9 -18 -8 -9 8 6 10 17 27 26 37 15 19 15
19 28 1 9 -12 16 -14 21 -7 3 6 -1 15 -10 20 -11 6 -13 11 -5 16 18 12 13 21
-14 22 -18 2 -23 -1 -16 -10 6 -7 5 -17 -4 -29 -10 -14 -14 -15 -18 -5 -4 10
-6 10 -6 1 -1 -7 -1 -16 0 -19 0 -4 -3 -10 -8 -13 -4 -3 -16 -22 -26 -42 -10
-20 -30 -47 -43 -60 -62 -61 -82 -87 -122 -153 -9 -16 -32 -48 -49 -72 -18
-25 -33 -50 -33 -58 0 -26 -67 -132 -77 -122 -3 3 4 18 16 34 21 31 28 62 12
62 -4 0 -6 11 -4 24 3 13 0 27 -6 30 -6 4 -11 17 -12 29 -2 43 -20 -35 -23
-103 -4 -65 -10 -103 -20 -118 -3 -5 4 -23 15 -41 11 -18 17 -36 14 -42 -4 -5
-1 -9 4 -9 6 0 11 -5 11 -11 0 -15 -49 17 -104 69 -25 24 -46 39 -46 35 0 -4
-4 -1 -10 7 -5 8 -12 12 -15 8 -4 -3 10 -19 31 -35 20 -15 53 -43 73 -61 28
-26 31 -32 16 -30 -20 3 -55 -30 -68 -66 -5 -12 -14 -17 -27 -13 -16 4 -20 0
-20 -21 0 -32 -10 -23 -21 20 l-8 33 3 -33 c2 -22 -1 -29 -8 -22 -17 17 -23
11 -18 -22 3 -18 14 -40 26 -50 23 -19 15 -24 -15 -7 -19 9 -19 9 -7 -13 7
-12 20 -28 28 -35 13 -10 13 -14 1 -25 -10 -9 -12 -9 -7 0 4 6 3 12 -2 12 -6
0 -12 -7 -16 -15 -3 -8 -10 -15 -17 -15 -6 0 -8 7 -5 16 3 8 1 24 -5 36 -10
18 -11 19 -23 2 -9 -12 -15 -13 -20 -6 -4 6 2 19 14 29 25 22 25 29 0 29 -10
0 -17 -2 -15 -4 2 -3 -2 -17 -10 -32 -15 -28 -62 -46 -79 -30 -21 20 78 111
104 95 5 -3 7 0 4 9 -3 8 9 41 27 73 53 95 69 127 69 138 0 6 -17 27 -37 46
l-38 35 -22 -23 c-12 -13 -17 -23 -10 -23 8 0 7 -4 -3 -9 -8 -6 -18 -7 -24 -4
-5 3 -6 1 -2 -5 11 -18 -14 -95 -35 -110 -13 -9 -18 -20 -14 -33 7 -22 5 -22
-30 -9 -17 7 -32 7 -43 0 -17 -10 -13 -12 23 -14 11 -1 20 -7 19 -13 -1 -7 -2
-27 -2 -44 -2 -28 -4 -30 -19 -18 -11 10 -14 10 -9 2 7 -13 -6 -18 -17 -7 -10
10 4 34 21 34 12 0 13 3 5 11 -17 17 -44 3 -36 -17 5 -13 3 -15 -7 -9 -8 5 -3
-8 9 -29 18 -29 21 -40 12 -49 -9 -9 -11 -8 -6 6 4 9 3 17 -3 17 -6 0 -23 5
-37 10 -21 8 -25 13 -16 24 8 10 8 16 -2 25 -8 6 -16 9 -18 7 -2 -3 -3 13 -1
35 2 21 0 39 -4 39 -11 -1 -50 -60 -59 -89 -3 -12 -11 -21 -16 -21 -6 0 -7 -5
-3 -11 4 -8 -1 -9 -17 -5 -20 6 -21 5 -6 -4 9 -6 17 -16 17 -22 0 -7 -6 -6
-15 2 -13 11 -14 10 -9 -6 4 -10 11 -25 17 -31 14 -18 -13 -17 -40 2 -19 13
-21 13 -26 -5 -6 -22 -15 -24 -35 -11 -14 9 31 64 140 174 27 26 48 52 48 57
0 6 26 39 59 74 32 35 62 72 65 82 4 10 21 28 38 39 17 11 36 29 42 39 6 11
22 30 34 42 26 25 26 60 -1 58 -22 -2 -21 2 3 28 22 24 26 43 10 53 -8 5 -7
12 2 23 11 14 9 14 -15 -1 -15 -10 -28 -15 -28 -12 -6 28 0 49 19 64 18 13 21
21 14 40 l-8 24 -21 -27 c-12 -14 -24 -26 -28 -26 -4 0 -1 8 6 17 12 15 12 16
-3 10 -10 -3 -18 -2 -18 3 0 19 24 60 35 60 6 0 29 16 51 36 21 20 32 31 22
25 -11 -8 -18 -9 -23 -1 -3 5 -2 10 3 10 5 0 12 9 15 21 4 15 2 18 -7 10 -7
-6 -17 -7 -21 -3 -5 4 -5 2 -2 -4 8 -14 -12 -32 -39 -37 -11 -1 -32 -12 -46
-22 -15 -11 -49 -33 -77 -50 -28 -16 -51 -33 -51 -37 0 -12 -54 -58 -69 -58
-11 0 -11 3 -1 15 10 12 10 15 -4 15 -9 0 -16 -7 -16 -15 0 -8 -6 -15 -14 -15
-8 0 -18 -5 -22 -11 -4 -8 0 -9 15 -4 14 4 21 2 21 -6 0 -7 -3 -9 -7 -6 -3 4
-17 0 -31 -9 -15 -10 -21 -11 -17 -3 5 8 4 10 -3 5 -7 -4 -12 -13 -12 -21 0
-8 -9 -13 -19 -12 -11 0 -18 4 -15 8 2 4 -2 9 -8 12 -7 2 -10 7 -7 11 4 4 14
0 23 -9 14 -15 16 -15 16 -1 0 9 -6 16 -12 16 -7 0 3 11 22 23 60 37 113 79
152 119 21 21 37 38 35 38 -1 0 -27 -9 -57 -20 -30 -11 -62 -20 -72 -20 -32 0
-103 -38 -116 -62 -15 -27 -39 -33 -39 -11 0 8 6 12 13 9 8 -3 11 0 7 10 -3 8
-12 13 -20 10 -8 -4 -27 -9 -41 -12 -63 -14 -121 -37 -175 -70 -32 -18 -69
-37 -83 -40 -13 -3 -21 -10 -18 -15 9 -15 -38 -48 -68 -49 -16 0 -28 -5 -28
-11 0 -6 -9 -8 -22 -3 -19 6 -21 5 -11 -8 11 -12 8 -17 -14 -29 -20 -11 -27
-11 -30 -1 -7 20 -44 14 -50 -8 -3 -11 -9 -20 -14 -20 -5 0 -9 -63 -9 -140 0
-165 -3 -164 104 -54 48 49 69 64 91 64 16 0 25 3 22 7 -4 3 -1 13 5 21 7 8
12 43 13 79 l0 65 110 29 c203 55 187 54 192 18 2 -12 -1 -18 -7 -14 -5 3 -10
-3 -10 -14 0 -23 -63 -55 -92 -47 -20 5 -25 -10 -5 -17 7 -3 5 -6 -6 -6 -14
-1 -16 -5 -8 -20 8 -14 5 -21 -13 -31 -13 -7 -29 -9 -35 -6 -7 5 -8 1 -4 -9 3
-10 1 -20 -6 -24 -8 -5 -5 -14 10 -29 19 -21 19 -24 4 -39 -15 -15 -19 -15
-52 1 -31 15 -35 15 -30 1 8 -19 0 -19 -19 0 -9 8 -22 15 -30 15 -8 0 -2 -11
15 -28 22 -20 27 -32 21 -42 -8 -13 -10 -12 -10 2 0 21 -13 29 -58 35 l-37 5
42 -33 c22 -19 65 -49 95 -67 51 -32 230 -192 214 -192 -4 0 -17 5 -29 12 -12
6 -35 11 -51 10 -16 -2 -33 3 -38 10 -6 11 -8 11 -8 0 0 -7 12 -17 27 -23 18
-7 23 -13 16 -20 -8 -8 -17 -5 -31 7 -12 10 -29 19 -39 20 -15 2 -14 -1 4 -13
13 -9 23 -20 23 -25 0 -5 -7 -2 -16 7 -12 11 -20 13 -27 6 -8 -8 -7 -15 2 -23
11 -10 13 -10 7 0 -10 17 2 15 21 -3 19 -20 17 -22 -32 -28 -22 -2 -49 -8 -59
-13 -15 -5 -17 -4 -11 6 5 8 4 11 -3 6 -6 -3 -13 -2 -17 4 -4 6 4 10 19 10 29
0 44 18 22 26 -22 8 -20 15 14 52 25 27 26 32 10 27 -14 -4 -20 -2 -20 8 0 8
-10 22 -22 33 -19 16 -20 16 -9 1 8 -9 11 -20 8 -24 -4 -3 -2 -12 3 -18 8 -9
5 -14 -10 -18 -13 -3 -20 0 -20 10 0 10 -6 12 -20 8 -11 -4 -20 -2 -20 4 0 6
4 11 8 11 4 0 8 9 8 20 0 21 -11 26 -21 10 -9 -14 -25 -12 -25 3 0 7 -7 22
-15 33 -14 18 -14 17 -4 -11 5 -16 15 -36 22 -43 6 -8 13 -21 15 -31 6 -29 9
-56 11 -79 0 -13 6 -20 11 -17 6 3 13 -2 17 -12 4 -10 11 -21 17 -25 8 -5 7
-8 -1 -8 -6 0 -15 5 -18 10 -3 6 -14 10 -23 10 -13 0 -13 -2 4 -16 18 -14 18
-15 -6 -7 -14 4 -37 6 -52 5 -16 0 -28 3 -28 8 0 6 5 10 10 10 6 0 10 8 10 18
0 13 -2 14 -9 3 -6 -9 -18 -12 -37 -7 -20 5 -25 4 -15 -3 12 -8 10 -11 -11
-16 -14 -4 -37 -5 -49 -2 -19 3 -17 5 9 6 30 1 32 3 26 27 -5 21 0 33 30 63
32 33 35 40 23 52 -7 8 -20 25 -26 38 -10 18 -15 21 -21 10 -5 -7 -6 -17 -3
-23 4 -5 1 -6 -6 -1 -8 4 -21 -1 -32 -14 -14 -15 -16 -21 -6 -21 7 0 14 -7 14
-15 0 -17 -9 -19 -23 -5 -6 6 -10 -1 -9 -21 0 -16 6 -33 13 -38 18 -11 17 -22
0 -32 -10 -6 -15 -30 -16 -82 l-2 -74 87 -1 c285 -2 357 -4 318 -13 -55 -11
-315 -21 -315 -11 0 10 -38 14 -67 7 -22 -5 -23 -9 -22 -108 1 -56 4 -92 7
-79 7 22 7 22 20 -7 16 -36 51 -51 64 -27 5 9 14 16 19 16 6 0 8 -3 6 -7 -3
-5 -1 -17 3 -28 7 -18 9 -18 21 9 l14 29 6 -24 7 -24 7 23 c8 25 16 27 33 10
9 -9 13 -4 18 21 5 25 11 31 27 29 12 -2 24 -13 27 -25 4 -19 7 -20 23 -9 14
11 16 19 7 40 -11 31 -13 76 -4 100 10 26 33 0 40 -45 5 -32 9 -37 20 -28 11
9 14 8 14 -2 0 -8 8 -5 18 9 l18 23 12 -26 c15 -32 15 -38 2 -30 -6 3 -10 -4
-10 -18 0 -13 -8 -35 -18 -48 -10 -13 -22 -32 -25 -43 -6 -14 -14 -17 -37 -12
-22 4 -30 2 -30 -9 0 -8 -5 -15 -10 -15 -6 0 -24 -13 -42 -30 -17 -16 -27 -30
-23 -30 4 0 -9 -13 -30 -30 -42 -33 -45 -35 -45 -20 0 6 7 10 15 10 10 0 15
10 15 28 0 43 -11 72 -27 72 -11 0 -14 -11 -13 -42 4 -69 2 -78 -21 -78 -11 0
-17 4 -14 10 3 6 1 10 -4 10 -6 0 -11 6 -11 14 0 8 -9 21 -21 29 -13 10 -21
27 -22 51 -2 34 -17 53 -17 21 0 -8 -9 -15 -20 -15 -19 0 -20 -7 -20 -144 0
-115 3 -148 15 -159 11 -12 12 -17 2 -20 -6 -3 14 -6 46 -6 36 -1 56 -5 52
-11 -3 -5 3 -10 14 -10 11 0 22 -8 24 -17 4 -17 5 -17 6 0 1 11 9 17 27 17 14
0 23 -4 19 -10 -3 -5 -1 -10 5 -10 7 0 9 -8 5 -19 -5 -16 -2 -18 17 -14 18 4
20 3 8 -6 -12 -8 -7 -11 21 -11 31 0 38 -4 43 -25 6 -22 12 -25 51 -25 24 0
47 -4 50 -10 3 -6 -4 -10 -17 -10 -18 0 -20 -2 -8 -10 8 -5 44 -10 80 -10 82
0 113 -16 52 -26 -63 -10 -51 -21 25 -22 38 0 78 -1 91 -1 13 -1 20 -5 17 -11
-4 -6 7 -10 25 -10 19 0 29 -4 25 -10 -5 -7 17 -10 66 -8 47 2 74 7 77 16 2 7
-2 10 -12 6 -9 -3 -16 -3 -16 0 0 4 12 11 26 16 29 11 54 3 33 -11 -11 -7 -10
-9 4 -9 10 0 15 -5 12 -10 -3 -6 1 -10 9 -10 9 0 15 -6 14 -12 -2 -7 6 -13 17
-14 60 -3 68 -7 25 -14 l-45 -7 58 -1 c34 -1 57 -6 57 -13 0 -7 -10 -9 -25 -7
-14 3 -28 1 -31 -3 -3 -5 8 -9 24 -9 16 0 32 -3 36 -7 4 -5 23 -8 41 -9 30 -1
32 1 22 18 -8 12 -20 18 -35 15 -18 -3 -20 -2 -11 9 6 8 21 14 33 15 17 1 16
2 -6 9 -29 9 -67 40 -48 40 7 0 6 5 -2 14 -7 8 -15 13 -18 13 -3 -1 -7 3 -9 8
-2 6 10 9 27 7 27 -3 30 0 28 22 0 14 -5 26 -10 26 -4 0 -6 7 -2 15 3 9 0 15
-9 15 -8 0 -15 5 -15 10 0 6 9 10 20 10 18 0 20 6 19 75 -1 48 -5 75 -13 76
-6 0 -2 4 9 9 18 8 18 9 -5 9 -20 1 -22 3 -10 11 13 8 13 10 -1 10 -21 0 -58
40 -38 40 8 1 -5 10 -28 21 -24 11 -43 26 -43 34 0 8 -13 30 -30 48 -16 19
-30 40 -30 46 0 6 -6 11 -14 11 -21 0 -46 45 -46 84 0 31 15 116 27 156 3 10
11 1 23 -25 20 -42 27 -145 10 -145 -5 0 -10 -9 -10 -20 0 -31 16 -24 27 13 5
17 15 31 21 29 8 -1 13 15 14 45 l1 48 6 -46 c5 -36 13 -52 38 -73 22 -19 33
-38 38 -69 7 -44 23 -75 55 -107 17 -17 19 -17 25 -2 4 11 8 13 13 5 11 -18
75 15 67 35 -3 10 0 12 10 8 8 -3 15 -1 15 4 0 5 7 7 15 4 8 -4 15 -1 15 5 0
6 3 10 8 10 19 -3 33 2 27 11 -3 6 -2 10 4 10 6 0 13 -12 17 -27 3 -16 8 -35
11 -43 3 -8 8 -55 13 -105 7 -81 6 -92 -11 -108 -11 -10 -19 -13 -19 -7 0 5
-6 10 -14 10 -8 0 -15 -8 -14 -17 0 -10 -3 -31 -6 -46 -6 -27 -5 -28 32 -26
29 2 38 7 39 21 1 12 -3 16 -10 11 -7 -4 -6 0 2 10 23 28 28 20 34 -53 3 -38
10 -78 16 -87 6 -10 11 -13 11 -5 0 9 8 10 28 6 24 -6 25 -5 14 8 -7 9 -12 20
-10 24 1 5 -2 34 -7 64 -4 30 -10 66 -12 80 -9 63 -10 128 -2 141 5 8 9 10 10
4 1 -5 3 -14 4 -20 2 -5 3 -29 4 -52 1 -33 4 -41 16 -37 11 5 13 2 9 -10 -5
-12 0 -16 17 -17 13 0 18 -3 12 -6 -17 -6 -16 -23 1 -23 8 0 16 -7 20 -15 3
-8 1 -15 -3 -15 -5 0 -12 -7 -15 -16 -5 -14 -4 -15 8 -5 17 15 36 7 36 -15 0
-8 5 -14 11 -14 5 0 7 -5 4 -10 -3 -6 3 -10 14 -10 14 0 19 -5 16 -20 -3 -15
3 -21 23 -26 54 -12 58 -14 42 -24 -12 -8 -11 -10 5 -11 11 0 15 -3 8 -6 -8
-3 -4 -12 12 -27 14 -13 25 -28 25 -34 0 -6 9 -27 20 -47 11 -19 17 -35 13
-35 -4 0 -3 -4 3 -10 12 -12 94 -21 94 -10 0 5 -4 12 -10 15 -14 9 -7 39 13
59 19 19 14 36 -9 36 -8 0 -14 5 -14 10 0 6 -6 10 -14 10 -14 0 -27 21 -32 50
-1 8 -7 29 -11 45 -5 17 -8 51 -6 76 2 37 -1 48 -14 53 -15 6 -15 8 -3 16 13
8 13 10 -1 10 -12 0 -16 16 -18 87 -1 48 -8 98 -16 112 -9 18 -10 34 -3 51 10
28 13 143 5 210 -3 25 -4 37 -1 27 3 -11 12 -16 20 -13 9 3 16 -4 20 -19 3
-14 10 -25 16 -25 5 0 6 -4 3 -10 -3 -5 -2 -10 3 -10 5 0 14 12 21 26 9 22 9
31 -4 50 -17 26 -21 104 -5 104 6 0 10 -8 11 -17 0 -17 1 -16 8 0 4 10 5 33 3
51 -3 30 -7 32 -45 35 -46 2 -52 5 -42 20 4 8 113 11 338 10 195 0 324 -4 312
-9 -17 -7 -15 -9 11 -9 48 -1 94 -13 89 -22 -3 -4 1 -25 10 -45 14 -34 14 -38
-2 -50 -10 -7 -23 -14 -30 -14 -23 0 -35 -131 -16 -177 15 -38 5 -44 -17 -10
-34 50 -48 92 -39 109 5 9 9 24 9 33 0 14 -3 14 -26 -2 -26 -17 -26 -19 -20
-92 6 -74 39 -192 61 -221 22 -28 7 -47 -35 -46 -31 1 -40 5 -40 18 0 9 -8 19
-18 22 -10 3 -33 32 -52 64 -19 31 -38 59 -41 62 -28 20 -110 138 -115 165
-12 64 17 101 37 48 6 -16 31 -45 55 -66 39 -32 47 -35 60 -23 21 22 18 63 -6
71 -47 15 -68 100 -25 100 11 0 23 -4 26 -9 4 -5 15 6 24 24 18 35 10 50 -28
50 -10 0 -16 4 -13 9 3 5 -77 7 -181 5 -170 -4 -219 -9 -185 -21 6 -3 10 -9 6
-14 -9 -15 -22 -10 -27 9 -3 9 -5 -24 -6 -73 -1 -56 -6 -96 -13 -103 -9 -9 -9
-12 1 -12 9 0 12 -9 8 -27 -7 -38 0 -51 28 -46 17 4 25 -1 30 -16 3 -12 10
-21 14 -21 5 0 11 -21 15 -47 3 -27 9 -60 12 -75 5 -20 2 -27 -13 -31 -12 -3
-10 -5 9 -6 35 -1 52 -52 25 -72 -5 -3 -1 -14 8 -23 16 -16 16 -17 -7 -11 -25
6 -25 6 -21 -52 6 -87 7 -97 16 -110 4 -6 3 -15 -3 -18 -6 -4 -9 -1 -8 6 2 6
-3 14 -9 16 -8 3 -13 -4 -13 -16 0 -17 6 -21 35 -21 19 0 35 5 35 10 0 6 -5
10 -10 10 -7 0 -7 7 1 22 10 18 9 20 -7 14 -17 -7 -17 -6 0 13 10 11 28 22 40
24 16 3 14 5 -8 6 -26 1 -30 14 -5 17 30 4 32 6 14 14 -18 8 -17 9 8 9 15 1
27 6 27 11 0 6 10 10 23 9 21 0 21 -1 2 -9 -15 -6 -8 -9 30 -10 34 -1 44 -4
31 -9 -16 -6 -17 -8 -4 -13 10 -4 15 -19 15 -45 -1 -22 4 -38 10 -38 6 0 15
-3 19 -8 4 -4 -2 -7 -14 -7 -41 0 -32 -19 10 -22 39 -3 43 -6 46 -30 2 -20 9
-28 23 -28 21 0 26 -25 7 -33 -7 -3 2 -6 20 -6 34 -1 44 -16 15 -24 -11 -3 -7
-5 10 -6 16 0 26 -5 22 -11 -4 -6 11 -10 37 -11 35 -1 39 -2 18 -8 l-25 -8 25
-4 c14 -3 24 -10 22 -17 -1 -6 6 -12 15 -12 11 0 14 -3 7 -8 -6 -4 -11 -15
-11 -24 0 -14 9 -18 34 -18 18 0 33 -4 33 -10 0 -5 8 -11 18 -11 9 -1 4 -5
-13 -9 l-30 -8 35 -2 c33 -2 34 -2 10 -10 -22 -8 -21 -9 10 -7 30 2 35 5 32
25 -2 12 2 22 7 22 6 0 11 -11 11 -25 0 -23 4 -25 45 -25 35 0 43 -3 39 -15
-4 -10 0 -15 12 -16 18 0 17 -1 -1 -9 -15 -7 -10 -8 23 -8 23 1 42 3 42 4 0
14 -25 52 -31 48 -5 -3 -9 0 -9 5 0 6 5 11 10 11 6 0 10 8 10 18 0 13 -2 14
-9 4 -10 -16 -21 16 -21 61 0 17 -5 27 -15 27 -18 0 -20 37 -2 43 6 2 -1 3
-17 1 -16 -2 -27 -1 -23 2 13 13 -23 34 -57 34 -26 0 -36 4 -36 15 0 13 7 15
38 9 20 -4 39 -10 42 -14 8 -12 73 -18 115 -11 l40 6 -35 17 c-26 13 -30 18
-15 18 12 0 16 3 9 8 -6 4 -14 19 -18 35 -5 22 -12 27 -36 27 -41 0 -47 18 -8
23 25 3 22 4 -15 5 -29 1 -46 6 -42 12 3 6 1 10 -4 10 -6 0 -11 9 -11 20 0 14
-7 20 -22 21 -22 1 -22 1 2 9 18 6 20 8 7 9 -10 1 -16 5 -13 10 4 5 2 11 -3
13 -8 3 17 89 45 153 16 38 10 90 -14 115 -20 22 -23 32 -17 75 8 71 8 104 1
155 -6 38 -5 43 6 30 7 -9 29 -24 49 -33 47 -22 56 -53 31 -107 -10 -22 -20
-38 -23 -36 -2 3 -3 -14 0 -36 l3 -41 14 32 c8 19 14 39 14 46 0 6 14 22 30
35 36 27 38 55 9 104 -22 38 -39 47 -39 21 0 -32 -15 -13 -17 23 -2 24 0 32 6
23 12 -19 33 -4 29 22 -1 12 1 28 6 35 12 19 1 25 -23 12 -13 -6 -21 -7 -21
-1 0 6 -15 7 -35 4 -28 -4 -35 -2 -35 11 0 14 17 16 133 17 72 1 145 0 161 -1
16 -1 33 4 37 12 7 10 9 10 9 0 0 -9 40 -12 166 -11 91 0 169 -2 172 -5 3 -4
14 1 24 11 10 9 18 11 18 5 0 -6 -6 -13 -12 -15 -13 -6 16 -11 41 -8 7 2 10
-2 7 -7 -3 -6 1 -12 8 -15 8 -3 17 -1 20 6 2 7 5 3 5 -8 1 -17 3 -17 11 -5 7
12 10 8 10 -15 0 -23 -3 -27 -10 -15 -9 13 -10 13 -10 0 -1 -8 -6 -4 -11 10
l-10 24 -24 -29 -24 -30 -2 30 c-1 17 -1 34 0 38 1 5 -4 7 -11 5 -8 -3 -13
-21 -13 -46 0 -28 -6 -47 -19 -59 -18 -17 -19 -17 -12 0 3 10 9 36 12 57 7 43
-5 56 -37 39 -16 -8 -23 -8 -29 0 -4 8 -41 10 -113 7 -60 -2 -107 0 -107 5 0
5 -17 9 -37 9 -33 0 -35 -1 -18 -13 10 -8 15 -19 11 -25 -11 -19 5 -14 21 6 8
9 12 12 9 6 -3 -6 1 -28 9 -50 8 -21 14 -33 15 -25 0 8 7 11 20 8 11 -3 20 0
20 6 0 8 3 8 11 0 7 -7 8 -22 0 -48 -10 -39 -5 -69 11 -59 5 3 12 -5 15 -17 7
-24 7 -24 18 4 9 23 11 8 7 -80 -4 -96 -2 -111 15 -132 26 -32 47 -20 40 23
-3 17 -10 55 -16 85 -6 32 -7 59 -2 65 5 6 11 25 13 41 1 17 8 29 13 27 12 -4
23 30 24 73 0 23 -2 26 -9 15 -7 -11 -10 -4 -9 25 0 34 2 37 9 18 11 -27 25
-29 39 -5 6 10 11 12 11 4 0 -7 5 -10 10 -7 6 3 10 3 10 -2 0 -4 3 -45 6 -90
7 -92 -5 -109 -31 -46 -15 35 -16 35 -30 17 -15 -19 -21 -127 -9 -158 9 -25
24 -19 24 9 0 27 18 33 38 13 9 -9 12 -3 12 30 0 33 3 40 15 36 11 -5 15 1 15
25 0 23 4 29 15 24 9 -3 22 2 29 12 7 10 19 16 27 13 18 -6 59 65 59 103 0 33
10 37 27 11 17 -29 4 -69 -36 -105 -20 -18 -37 -37 -39 -42 -2 -6 -5 -20 -9
-32 -3 -13 -10 -23 -16 -23 -6 0 -4 -7 5 -16 15 -16 18 -16 35 1 17 18 18 17
21 -30 3 -45 -12 -105 -27 -105 -3 0 -12 -9 -19 -21 -9 -15 -10 -24 -3 -33 13
-16 2 -81 -11 -68 -5 5 -5 20 1 35 10 25 7 31 -11 28 -4 0 -4 7 -1 16 4 11 3
14 -5 9 -7 -4 -12 -25 -12 -47 0 -31 -4 -39 -17 -39 -14 0 -15 2 -4 9 11 7 11
10 0 17 -8 4 -15 2 -17 -6 -9 -25 -57 -68 -81 -71 -24 -4 -24 -5 -7 -21 11
-12 13 -18 5 -18 -7 0 -4 -7 7 -15 18 -14 18 -16 2 -28 -10 -8 -15 -17 -11
-20 3 -4 -9 -8 -28 -8 l-34 -1 30 -7 c24 -5 32 -3 42 14 7 11 13 18 13 15 3
-11 9 -69 14 -128 3 -35 8 -67 11 -71 3 -5 -2 -11 -10 -15 -8 -3 -12 -12 -9
-21 4 -9 1 -15 -7 -16 -8 0 -3 -5 11 -10 20 -8 22 -12 10 -19 -12 -8 -10 -10
8 -10 13 0 22 -6 21 -12 -5 -39 1 -48 35 -48 19 0 43 -3 53 -7 16 -6 15 -8 -7
-14 -20 -6 -17 -8 20 -10 44 -2 44 -2 -15 -9 -59 -6 -58 -7 29 -8 l88 -2 -4
25 c-4 17 -1 25 9 25 9 0 13 -6 9 -15 -3 -8 -1 -15 5 -15 6 0 7 -5 4 -10 -4
-6 8 -10 27 -11 31 -1 32 -1 8 -9 -16 -6 4 -8 60 -7 72 2 85 5 88 20 2 10 -3
17 -12 17 -9 0 -15 5 -14 12 2 6 -8 17 -20 24 -17 8 -20 13 -10 17 7 3 2 6
-11 6 -24 1 -24 1 -5 16 18 14 18 14 -10 15 -21 0 -27 4 -22 15 4 11 -1 15
-17 15 -14 0 -23 7 -25 18 -1 9 -4 33 -7 52 -3 19 -6 47 -6 63 -1 15 -6 27
-11 27 -5 0 -6 5 -3 10 3 6 -4 10 -16 10 -16 0 -20 3 -13 10 14 14 75 -17 81
-41 3 -11 15 -19 27 -20 20 0 20 -1 1 -9 -11 -5 -14 -9 -7 -9 20 -1 39 -24 34
-40 -3 -8 2 -18 11 -22 9 -6 13 -17 10 -29 -4 -14 0 -20 12 -20 14 0 15 -3 5
-15 -10 -12 -10 -15 0 -15 7 0 10 -7 6 -15 -3 -8 -1 -15 5 -15 6 0 7 -4 4 -10
-4 -6 9 -9 32 -9 36 2 36 2 8 8 -25 4 -21 6 25 11 l55 6 -55 10 -55 9 65 6
c54 5 61 7 40 14 l-25 9 30 6 c24 4 29 10 27 27 -3 18 3 22 30 25 29 3 33 6
32 31 -1 26 1 27 48 27 l49 0 -3 34 c-1 25 -8 36 -23 41 -13 4 -16 8 -7 12 10
4 10 8 2 18 -7 8 -11 41 -11 75 0 38 -4 60 -11 60 -7 0 -3 7 8 15 14 10 15 14
5 15 -20 0 18 29 39 30 19 0 35 25 45 68 4 19 12 31 18 29 7 -3 11 -10 9 -16
-1 -6 2 -11 8 -11 5 0 10 7 10 16 0 9 11 38 25 66 14 27 25 57 25 65 0 11 7
14 23 9 18 -4 24 -1 25 12 2 34 -30 167 -44 183 -16 18 -14 53 4 71 21 21 13
25 -50 26 -53 1 -59 -1 -40 -10 33 -17 30 -67 -8 -106 -16 -18 -30 -36 -30
-42 0 -5 -5 -10 -10 -10 -21 0 -60 -49 -60 -75 0 -14 -4 -25 -10 -25 -5 0 -10
9 -10 20 0 18 -1 18 -29 2 -45 -25 -55 -55 -55 -174 -1 -111 -7 -134 -26 -99
-6 12 -15 19 -20 16 -4 -3 -14 12 -20 32 -7 21 -17 43 -22 49 -5 7 -8 27 -7
45 2 22 -6 49 -22 74 -27 44 -51 99 -69 158 -6 20 -18 37 -26 37 -10 0 -14 12
-14 40 0 44 6 49 26 23 9 -12 13 -14 14 -5 0 10 8 12 29 7 17 -3 32 -2 36 5 3
5 11 8 16 5 5 -4 9 -1 9 5 0 7 -15 10 -40 9 -21 -2 -42 -1 -45 3 -10 9 114 29
173 28 32 -1 59 -1 62 0 7 1 233 2 336 1 l80 -1 3 -42 c2 -47 19 -88 22 -53 1
11 5 0 10 -24 6 -32 5 -51 -5 -70 -19 -36 -34 -72 -41 -98 -3 -13 -9 -22 -13
-20 -4 1 -19 -11 -34 -26 -15 -15 -36 -27 -48 -27 -11 0 -20 -5 -20 -11 0 -5
-4 -7 -10 -4 -5 3 -10 0 -10 -8 0 -7 -9 -23 -19 -34 -11 -12 -17 -24 -14 -27
4 -3 -1 -6 -10 -6 -11 0 -18 -12 -23 -37 -4 -21 -15 -44 -26 -51 -20 -14 -18
-60 3 -72 8 -6 8 -9 -2 -12 -9 -3 -8 -6 4 -11 11 -4 17 -1 17 8 0 8 3 14 8 13
4 -1 18 4 31 11 19 10 21 15 10 22 -10 6 -11 9 -1 9 6 0 12 7 12 15 0 8 5 15
11 15 6 0 10 19 8 48 -3 71 -1 80 11 62 6 -10 10 -11 10 -2 0 6 7 12 15 12 8
0 15 5 15 10 0 6 5 10 10 10 13 0 12 -54 -1 -105 -12 -42 -14 -115 -6 -177 2
-22 0 -39 -7 -42 -7 -3 -6 -8 4 -15 11 -8 18 -7 26 4 10 14 12 14 18 0 6 -16
69 -21 103 -8 15 6 13 9 -12 14 -27 5 -23 7 32 18 34 8 64 20 67 27 3 8 1 14
-3 14 -5 0 -11 -5 -13 -12 -3 -8 -9 -8 -24 0 -19 11 -19 11 0 12 20 0 20 0 0
15 -10 8 -14 15 -7 15 6 0 13 10 15 23 2 16 11 23 33 26 26 3 28 4 10 11 -19
8 -19 9 3 9 16 1 21 5 16 14 -4 6 2 4 13 -5 22 -20 38 -24 28 -7 -4 6 2 13 14
16 20 5 21 10 15 72 -3 36 -12 80 -19 96 -25 55 -46 167 -35 180 6 7 10 26 8
41 -2 33 27 84 48 84 7 0 16 -12 20 -27 14 -64 18 -70 24 -38 3 17 11 31 18
31 6 1 21 2 32 3 13 1 20 8 20 22 0 15 5 19 15 15 8 -3 18 2 23 10 5 9 13 15
18 14 5 -1 10 3 12 9 5 14 -80 24 -146 17 -51 -5 -95 4 -81 18 3 3 173 6 377
6 l372 1 0 96 0 95 -24 -6 c-33 -8 -36 0 -27 66 7 53 6 57 -16 67 -29 13 -34
13 -52 2 -11 -7 -10 -13 8 -32 12 -13 20 -31 18 -40 -2 -9 0 -24 5 -33 14 -25
-1 -19 -48 20 l-44 35 17 -30 c10 -16 20 -28 22 -25 6 5 31 -16 31 -27 0 -5
-12 -7 -27 -3 -54 12 -68 14 -55 8 19 -9 14 -24 -8 -24 -11 0 -20 7 -20 15 0
9 -8 18 -17 22 -29 10 -52 34 -47 47 3 7 -2 13 -10 13 -13 0 -13 -4 0 -29 8
-15 14 -30 14 -33 -1 -21 1 -26 9 -21 4 3 18 -3 31 -14 12 -10 28 -16 36 -13
8 3 14 1 14 -5 0 -10 -33 -24 -60 -25 -8 -1 -14 4 -13 11 2 6 -3 9 -11 6 -8
-3 -17 -1 -21 5 -5 10 15 16 38 12 5 -1 6 3 3 7 -8 13 -54 3 -60 -13 -3 -8 5
-16 20 -19 13 -4 24 -11 24 -17 0 -7 -17 -9 -51 -4 -37 5 -50 4 -45 -4 4 -6
17 -12 29 -12 18 -1 18 -2 4 -6 -10 -3 -25 1 -33 8 -13 10 -17 10 -23 0 -12
-18 -148 -7 -172 15 -17 15 -19 15 -25 0 -6 -16 -24 -23 -24 -8 1 25 19 34 48
24 24 -8 33 -7 42 3 12 15 -3 31 -20 20 -5 -3 -19 4 -31 16 -17 17 -29 20 -58
16 -34 -6 -35 -5 -16 9 19 14 19 14 -5 12 -27 -3 -50 -19 -44 -29 2 -4 -8 -6
-21 -6 -21 0 -24 3 -19 20 5 16 3 19 -11 14 -9 -4 -26 -7 -37 -7 -13 0 -18 -5
-15 -14 5 -12 1 -13 -24 -4 -16 5 -36 7 -44 4 -9 -3 -15 0 -15 9 0 9 9 15 23
15 46 0 92 20 104 45 12 27 4 39 -21 29 -13 -5 -14 -1 -5 28 6 18 17 58 25 88
8 30 21 66 28 80 21 38 17 129 -6 141 -14 8 -23 4 -43 -17 -30 -33 -44 -25
-21 11 21 33 7 55 -34 55 -22 0 -27 4 -23 19 12 45 -64 68 -107 31 -12 -11
-27 -17 -31 -14 -5 3 -9 1 -9 -5 0 -6 -8 -8 -17 -5 -15 5 -15 3 1 -10 19 -16
19 -16 -1 -16 -28 0 -35 -13 -27 -46 7 -26 8 -26 20 -9 13 18 14 18 14 -1 0
-12 -3 -24 -7 -27 -10 -11 -7 -110 4 -132 6 -11 8 -26 5 -34 -3 -8 0 -11 7 -7
7 5 9 1 5 -8 -8 -21 6 -20 22 2 12 15 12 15 7 -6 -6 -25 15 -75 28 -67 4 3 5
-4 2 -15 -6 -22 -18 -26 -28 -10 -7 11 -45 33 -45 27 0 -2 19 -17 43 -33 47
-32 72 -54 61 -54 -3 0 -1 -7 6 -15 11 -14 7 -19 -12 -16 -5 0 -8 -10 -8 -24
0 -20 -6 -25 -35 -31 -53 -10 -50 -20 5 -20 27 -1 47 3 44 7 -5 9 18 3 53 -13
15 -7 31 -7 54 1 42 14 49 14 49 -3 0 -9 -7 -12 -20 -9 -14 4 -20 0 -20 -11 0
-11 -7 -15 -22 -12 -13 2 -30 -2 -38 -8 -13 -9 -13 -9 -2 6 9 11 10 18 2 23
-5 3 -10 1 -10 -5 0 -6 -10 -8 -24 -4 -13 3 -27 1 -30 -5 -11 -17 -29 -13 -22
4 7 18 2 19 -24 3 -17 -11 -22 -10 -30 2 -8 13 -10 12 -10 -2 0 -22 -16 -24
-24 -3 -3 8 -11 15 -18 15 -9 0 -9 -3 2 -10 8 -5 12 -12 8 -15 -3 -3 -16 7
-30 23 -13 16 -32 29 -41 29 -25 0 -21 -15 5 -19 11 -2 22 -11 24 -20 2 -15
-1 -16 -19 -6 -12 7 -28 11 -34 10 -7 -2 -10 3 -7 11 4 10 -3 13 -25 9 -28 -4
-33 -15 -19 -37 4 -7 -12 -11 -48 -10 -53 0 -71 17 -26 23 30 5 27 18 -5 27
-58 15 -73 15 -73 3 0 -10 -2 -10 -8 -1 -4 7 -41 14 -87 17 -54 3 -71 2 -52
-4 16 -5 37 -7 48 -5 11 2 19 -2 19 -10 0 -17 20 -24 44 -16 25 9 76 1 76 -11
0 -6 -12 -8 -27 -5 -26 5 -26 4 -8 -9 18 -13 18 -14 -6 -15 -48 -3 -95 3 -121
17 -32 17 -41 18 -33 4 4 -6 -1 -7 -11 -3 -12 4 -15 3 -10 -5 5 -8 2 -10 -8
-6 -9 3 -14 10 -11 14 8 13 -24 33 -44 27 -10 -2 -25 -1 -32 4 -8 4 -19 3 -28
-4 -11 -9 -15 -9 -18 1 -3 7 -21 12 -42 12 -25 0 -44 7 -56 20 -18 19 -17 20
3 20 11 0 23 -4 26 -9 3 -5 15 -11 26 -14 16 -4 24 1 32 19 6 13 17 24 24 24
13 0 30 36 26 56 -1 6 5 17 13 24 8 7 15 20 15 30 0 10 15 40 33 67 24 36 31
55 27 73 -11 42 20 111 68 158 25 23 48 42 53 42 8 0 -4 -61 -16 -80 -5 -9 -4
-11 3 -6 7 4 12 3 12 -2 0 -6 -7 -12 -15 -16 -8 -3 -15 -10 -15 -16 0 -6 5 -8
12 -4 8 5 9 0 4 -17 -4 -13 -7 -40 -6 -60 0 -24 -4 -39 -15 -42 -8 -4 -15 -2
-15 4 0 6 -5 7 -10 4 -17 -10 8 -35 27 -28 11 4 14 2 9 -5 -4 -7 -1 -12 8 -12
9 0 15 -4 13 -9 -1 -5 27 -32 63 -60 36 -29 74 -62 85 -76 11 -13 41 -35 68
-48 44 -24 47 -24 47 -6 0 10 4 19 10 19 9 0 32 66 36 109 2 13 6 31 9 39 8
21 -14 45 -30 32 -10 -8 -14 -2 -19 24 -4 19 -13 39 -21 46 -8 7 -15 18 -15
25 0 19 -27 38 -35 25 -10 -17 -28 -11 -23 8 6 21 -21 72 -47 86 -10 6 -25 17
-33 24 -19 17 -30 15 -37 -8 -10 -33 -31 -23 -31 14 0 28 5 37 28 48 27 13 27
14 13 42 -18 34 -19 39 -3 30 7 -4 8 -3 4 5 -4 6 -2 18 4 26 7 8 10 15 6 15
-4 0 0 14 9 30 9 17 20 30 25 30 17 0 11 18 -7 23 -16 4 -16 5 -2 6 21 1 32
28 17 37 -7 5 -8 2 -3 -6 6 -10 4 -12 -10 -6 -30 11 -127 -15 -133 -36 -2 -10
-11 -18 -18 -18 -8 0 -18 -8 -22 -17 -20 -49 -127 -195 -149 -204 -32 -12 -33
-12 -33 7 0 11 6 15 20 11 11 -3 20 -1 20 3 0 5 -7 10 -15 12 -11 2 -8 10 14
33 15 17 41 51 56 75 15 24 50 66 77 92 39 38 54 47 73 42 23 -6 43 10 26 21
-6 3 -8 12 -4 20 3 10 -1 15 -13 15 -23 1 -65 30 -43 30 11 1 11 3 -2 13 -9 7
-19 21 -22 32 -4 17 -5 17 -6 3 0 -10 -6 -18 -12 -18 -5 0 -7 5 -4 10 3 6 -1
10 -10 10 -12 0 -15 6 -11 23 3 12 4 17 1 12 -3 -6 -22 -10 -43 -8 -20 2 -31
0 -24 -3 9 -4 7 -11 -10 -26 -12 -10 -23 -31 -24 -46 -2 -41 -3 -44 -14 -37
-6 4 -10 -6 -10 -24 0 -20 -6 -32 -19 -36 -11 -3 -32 -22 -47 -43 -16 -20 -43
-53 -62 -72 -19 -19 -40 -49 -47 -66 -15 -34 -42 -60 -52 -50 -3 3 -1 6 5 6 6
0 16 16 22 35 6 19 26 56 44 83 18 26 31 53 28 61 -3 8 0 11 6 7 5 -3 12 0 15
7 3 8 -3 13 -14 13 -11 0 -22 -8 -25 -18 -3 -10 -9 -18 -14 -18 -13 0 0 42 24
75 12 17 28 43 36 58 8 16 27 36 42 45 16 9 26 22 24 29 -3 7 -1 12 3 10 5 -1
9 2 9 7 0 5 6 13 14 17 11 7 10 11 -2 19 -12 8 -11 10 7 10 26 0 36 14 29 38
-5 15 -17 19 -58 20 -29 0 -55 -2 -58 -6 -15 -20 -73 -61 -80 -57 -5 3 -11 1
-15 -5 -3 -5 -15 -10 -26 -10 -11 0 -17 5 -14 10 4 6 11 8 16 4 5 -3 8 0 7 8
-2 7 2 12 9 11 7 -2 17 6 22 16 10 18 9 18 -33 6 -74 -22 -123 -53 -144 -90
-13 -22 -29 -35 -41 -35 -20 0 -20 0 -2 -34 14 -24 18 -47 15 -85 -3 -40 0
-51 12 -51 12 0 13 -8 8 -35 -7 -38 2 -45 22 -18 20 28 29 7 10 -23 -20 -29
-12 -49 8 -21 7 9 19 17 25 17 7 0 9 5 6 10 -3 6 1 10 9 10 12 0 13 -5 4 -30
-12 -37 -39 -54 -58 -37 -12 10 -12 9 -2 -4 8 -11 8 -21 -2 -41 -12 -22 -12
-27 -1 -32 19 -7 38 20 32 44 -3 12 -1 18 5 14 5 -4 8 -20 5 -38 -4 -28 24
-106 38 -106 3 0 -1 14 -10 30 -9 17 -12 30 -8 30 5 0 1 5 -7 10 -13 8 -13 10
2 10 19 0 41 -52 41 -98 0 -18 2 -31 5 -28 13 14 34 -54 33 -107 -1 -32 2 -64
6 -71 4 -6 -1 -2 -12 11 -12 13 -26 23 -32 23 -6 0 -16 7 -23 16 -8 8 -23 20
-34 25 -17 8 -17 7 3 -9 18 -14 20 -21 10 -24 -9 -4 7 -24 49 -63 68 -62 77
-84 15 -39 -34 25 -32 21 17 -31 30 -33 63 -65 73 -73 10 -8 16 -21 13 -29 -3
-8 -2 -12 3 -8 5 3 12 -1 14 -7 4 -10 6 -10 6 0 1 7 14 12 33 12 21 0 29 -3
22 -10 -18 -18 -191 -7 -212 14 -11 11 -7 13 26 11 22 -1 44 -5 50 -9 5 -3 13
1 16 9 3 9 1 15 -7 14 -6 -1 -28 0 -47 1 -24 2 -28 4 -13 7 33 7 36 31 6 59
l-28 26 -17 -22 c-15 -18 -18 -19 -18 -6 0 11 -5 14 -12 10 -7 -4 -8 -3 -4 4
4 7 15 12 24 13 11 0 12 2 4 6 -6 2 -9 10 -5 16 4 6 0 8 -10 4 -11 -4 -20 3
-29 23 -9 22 -15 26 -25 18 -7 -6 -13 -17 -13 -25 0 -12 3 -13 14 -4 11 9 15
8 20 -5 10 -26 7 -32 -24 -50 l-29 -18 27 -18 c18 -12 27 -27 28 -45 1 -44 -8
-49 -20 -12 -7 21 -19 35 -31 38 -20 3 -20 3 -1 -17 26 -30 15 -55 -19 -42
-32 12 -38 12 -31 1 3 -5 -15 -11 -41 -13 -36 -3 -52 1 -65 14 -10 10 -18 15
-18 11 -1 -5 -10 3 -20 16 -11 13 -20 18 -20 11 0 -7 -6 -6 -16 4 -20 21 -41
21 -24 1 7 -8 9 -16 4 -16 -32 -5 -94 -4 -95 0 -5 22 -4 70 1 91 3 14 1 36 -6
49 -18 34 -11 37 24 11 36 -27 48 -60 26 -76 -13 -11 -13 -14 1 -28 17 -17 30
-22 21 -8 -2 4 2 22 11 40 11 24 13 35 4 45 -6 8 -7 18 -2 23 17 19 40 93 31
99 -13 8 -13 27 2 62 6 15 13 36 15 47 2 10 13 32 25 49 l21 30 -21 18 c-15
12 -22 28 -22 53 0 34 -6 41 -37 37 -8 -1 -10 5 -6 15 4 11 -1 22 -12 30 -21
16 -49 19 -40 5 3 -5 1 -12 -5 -16 -9 -6 -14 8 -11 28 1 4 -8 3 -19 -3 -11 -6
-25 -8 -30 -5 -6 3 -21 -6 -35 -21 -14 -15 -31 -24 -39 -21 -17 7 -18 47 -1
47 5 0 4 4 -4 9 -11 7 -12 13 -3 24 9 11 9 14 -3 14 -7 0 -14 -3 -13 -6 0 -3
0 -18 -1 -32 -1 -23 -4 -25 -33 -22 -19 3 -28 1 -22 -4 6 -4 19 -23 29 -40 14
-23 22 -29 28 -20 5 7 6 1 2 -17 -4 -19 -1 -32 9 -40 20 -15 32 -66 16 -66
-13 0 -5 -58 11 -74 12 -13 12 6 -1 39 -7 17 -7 24 0 20 6 -4 10 8 11 27 l1
33 8 -33 c5 -20 3 -55 -4 -86 -8 -34 -9 -59 -3 -73 5 -12 6 -34 2 -50 -5 -15
-8 -31 -7 -35 3 -13 -16 -9 -22 5 -3 6 -3 -4 0 -23 8 -43 13 -52 24 -45 5 3 6
13 3 23 -6 15 -5 15 11 3 17 -14 17 -16 1 -27 -13 -10 -22 -10 -36 -1 -30 19
-44 -4 -19 -33 11 -13 20 -27 20 -31 0 -5 11 -11 25 -15 14 -3 25 -10 25 -15
0 -5 6 -6 14 -3 8 3 17 1 21 -5 4 -7 -7 -11 -30 -11 -20 0 -34 3 -32 8 3 4
-25 6 -62 4 -51 -3 -72 0 -83 12 -9 8 -19 12 -24 8 -5 -4 -1 3 9 15 10 12 36
33 57 48 35 24 37 29 30 57 -11 37 -29 60 -42 52 -6 -4 -14 0 -19 7 -5 9 -7 6
-5 -12 1 -13 6 -31 10 -37 15 -25 -2 -59 -33 -65 -38 -8 -84 -50 -70 -64 7 -7
5 -12 -5 -16 -10 -4 -16 -1 -16 8 0 9 -9 15 -22 15 -18 0 -20 -2 -8 -10 21
-13 8 -21 -38 -23 -22 -1 -38 -5 -35 -9 4 -8 -101 -14 -122 -7 -5 1 -25 2 -43
1 -20 -1 -31 2 -27 8 3 5 13 10 21 10 16 0 19 16 5 24 -5 4 -12 0 -15 -6 -5
-10 -7 -10 -12 0 -5 10 -9 9 -20 -5 -13 -17 -13 -17 -14 2 0 17 -2 17 -10 5
-7 -11 -10 -11 -10 -2 0 10 -5 10 -20 2 -12 -6 -20 -7 -20 -1 0 9 9 15 93 69
20 13 39 32 42 43 4 10 17 22 29 25 21 5 23 12 23 59 l0 54 -27 -19 c-15 -11
-31 -16 -36 -12 -4 4 -2 -1 5 -10 7 -10 19 -18 27 -18 19 0 13 -40 -8 -51 -12
-6 -25 -6 -38 1 -17 9 -27 5 -60 -22 -22 -18 -40 -38 -40 -44 0 -13 -43 -54
-56 -54 -5 0 -18 7 -29 16 -18 13 -17 14 12 8 27 -5 31 -3 29 12 -2 11 -10 18
-20 16 -18 -3 -22 13 -6 23 6 4 16 21 24 38 7 18 32 55 54 82 80 96 92 113
106 139 21 40 93 116 110 116 9 0 16 6 16 13 0 8 3 8 8 1 4 -6 15 -13 25 -17
16 -6 17 -9 4 -21 -9 -9 -12 -26 -9 -41 3 -21 0 -27 -17 -32 -11 -3 -18 -9
-15 -14 2 -5 -2 -21 -9 -36 -20 -39 -30 -97 -32 -173 -1 -54 -4 -65 -18 -64
-19 2 -23 -11 -6 -21 6 -4 16 0 22 10 11 15 15 15 42 1 16 -8 31 -13 34 -11 8
9 -41 55 -52 48 -15 -9 2 36 35 97 31 54 56 82 70 74 3 -2 16 11 27 30 12 19
28 37 37 40 9 3 1 -12 -18 -35 -18 -22 -37 -48 -43 -57 -5 -10 -16 -21 -22
-25 -7 -4 -13 -13 -13 -20 0 -7 -9 -23 -20 -37 -21 -27 -26 -65 -10 -75 6 -4
7 5 4 23 -4 17 -1 32 5 36 7 5 12 -7 13 -36 0 -24 2 -47 3 -53 2 -5 3 -16 4
-23 0 -7 5 -11 10 -8 11 7 42 -4 37 -13 -2 -3 8 -6 23 -7 24 -1 29 5 45 57 18
54 18 60 2 92 -22 48 -20 75 9 113 30 40 31 72 4 144 -38 100 -49 119 -67 112
-15 -5 -15 -4 -2 9 9 9 25 21 38 28 12 6 22 19 22 29 0 10 17 25 42 37 24 12
62 44 86 74 39 47 42 55 27 64 -12 6 -22 3 -36 -12 -11 -12 -31 -21 -44 -21
-57 0 -180 -41 -188 -64 -7 -18 -104 -96 -120 -96 -20 0 85 100 165 157 43 31
75 60 72 65 -3 5 -2 8 3 7 25 -4 33 2 27 25 -5 20 0 27 24 40 37 19 49 36 27
36 -9 0 -14 -4 -11 -9 3 -5 -1 -11 -9 -15 -21 -8 -19 4 8 32 15 16 22 36 22
63 1 44 -4 47 -28 19z m-867 -180 c0 -5 -5 -10 -11 -10 -5 0 -7 5 -4 10 3 6 8
10 11 10 2 0 4 -4 4 -10z m2010 -44 c0 -11 -19 -15 -25 -6 -3 5 1 10 9 10 9 0
16 -2 16 -4z m-2740 -36 c0 -5 -5 -10 -11 -10 -5 0 -7 5 -4 10 3 6 8 10 11 10
2 0 4 -4 4 -10z m-489 -62 c-17 -16 -36 -26 -41 -23 -12 7 37 52 57 52 9 0 2
-12 -16 -29z m466 16 c4 -11 -59 -44 -82 -44 -22 0 -18 18 6 31 17 9 24 8 31
-2 7 -10 8 -8 4 7 -5 17 -2 20 16 19 12 -1 23 -6 25 -11z m2258 -24 c-3 -5
-12 -10 -18 -10 -7 0 -6 4 3 10 19 12 23 12 15 0z m65 0 c0 -5 -8 -10 -17 -10
-15 0 -16 2 -3 10 19 12 20 12 20 0z m-2270 -20 c0 -5 -5 -10 -11 -10 -5 0 -7
5 -4 10 3 6 8 10 11 10 2 0 4 -4 4 -10z m-396 -67 c-6 -22 -36 -42 -31 -21 2
11 30 46 34 43 1 0 0 -10 -3 -22z m336 -8 c0 -5 -5 -3 -10 5 -5 8 -10 20 -10
25 0 6 5 3 10 -5 5 -8 10 -19 10 -25z m-160 21 c0 -2 -7 -7 -16 -10 -8 -3 -12
-2 -9 4 6 10 25 14 25 6z m116 -47 c1 -8 3 -16 4 -19 1 -3 3 -12 5 -20 3 -20
-34 -24 -41 -5 -3 8 -12 11 -20 8 -8 -3 -14 0 -14 6 0 6 6 11 14 11 8 0 18 9
21 21 7 22 29 21 31 -2z m-216 -23 c0 -7 -8 -20 -17 -27 -15 -11 -16 -11 -6 0
6 7 9 20 6 27 -3 8 0 14 6 14 6 0 11 -6 11 -14z m1733 -13 c-8 -22 -24 -33
-36 -26 -6 3 1 14 14 24 30 23 30 23 22 2z m779 -45 c-8 -8 -9 -4 -5 13 4 13
8 18 11 10 2 -7 -1 -18 -6 -23z m-2402 -48 c0 -14 -12 -23 -41 -31 -26 -8 -45
-22 -54 -40 -8 -14 -23 -29 -35 -32 -20 -5 -20 -5 -3 25 10 17 29 37 43 46 14
9 35 26 48 39 25 26 42 23 42 -7z m3440 26 c0 -2 -8 -10 -17 -17 -16 -13 -17
-12 -4 4 13 16 21 21 21 13z m-2833 -88 c-1 -40 -6 -78 -9 -83 -10 -16 8 -39
23 -30 9 6 11 3 5 -10 -4 -11 0 -24 8 -34 47 -51 56 -62 56 -67 0 -3 -6 -4
-14 -1 -8 3 -17 0 -19 -7 -3 -8 1 -13 11 -12 9 0 16 -5 15 -11 -4 -16 2 -16
28 -3 24 14 26 -5 2 -20 -17 -11 -17 -11 0 -6 21 7 47 -2 47 -16 0 -6 -9 -8
-20 -5 -15 4 -21 1 -19 -11 3 -30 -1 -43 -10 -37 -5 3 -12 1 -16 -5 -3 -5 -1
-10 4 -10 17 0 13 -18 -4 -23 -11 -4 -10 -5 2 -3 10 0 22 11 28 23 11 21 11
21 23 2 17 -26 15 -31 -8 -24 -11 4 -20 2 -20 -4 0 -7 -24 -11 -61 -11 -37 0
-58 -4 -54 -10 3 -5 5 -10 3 -10 -2 -1 -20 -3 -42 -6 -26 -4 -36 -3 -32 5 4 6
19 12 34 12 l27 1 -27 7 -28 6 30 17 c19 11 30 13 30 6 0 -6 3 -8 7 -5 3 4 -3
17 -14 30 -11 12 -23 29 -26 37 -3 11 -9 6 -18 -15 -8 -16 -21 -31 -29 -31 -8
-1 -23 -5 -32 -9 -29 -12 -21 15 17 63 35 44 51 79 42 89 -14 13 -50 -43 -86
-130 -8 -20 -16 -27 -27 -23 -9 4 -22 2 -28 -3 -9 -7 -13 -1 -14 22 -2 25 0
29 10 19 14 -14 32 -16 23 -3 -3 5 -1 12 4 15 5 3 23 31 40 61 19 33 38 55 49
55 9 0 13 3 7 8 -5 4 -11 18 -12 32 -2 22 4 18 47 -30 28 -30 55 -54 61 -52 6
1 8 -1 5 -6 -3 -5 10 -24 29 -42 28 -27 37 -31 48 -21 10 10 9 12 -3 9 -9 -2
-15 4 -15 15 0 10 -11 26 -24 36 -15 11 -22 24 -18 34 3 9 -1 18 -9 21 -9 3
-12 1 -9 -4 3 -6 2 -10 -4 -10 -23 0 -19 19 6 28 19 7 22 11 10 11 -10 1 -15
6 -12 11 3 6 2 10 -4 10 -5 0 -11 -6 -14 -12 -3 -10 -8 -10 -21 1 -9 8 -14 21
-11 29 3 9 0 12 -8 9 -10 -4 -14 6 -15 34 -1 27 2 39 11 38 30 -4 40 1 29 14
-15 17 -3 117 13 117 3 0 3 -33 2 -72z m1916 55 c-6 -16 -5 -17 12 -3 16 13
18 13 13 0 -2 -8 -14 -16 -26 -16 -25 -1 -28 6 -10 24 16 16 19 15 11 -5z
m-2738 -3 c3 -5 -1 -10 -9 -10 -9 0 -16 5 -16 10 0 6 4 10 9 10 6 0 13 -4 16
-10z m3679 -20 c-9 -16 -20 -33 -26 -36 -6 -4 -8 -3 -5 3 4 6 11 22 16 37 6
14 15 26 20 26 5 0 3 -13 -5 -30z m-1847 -32 c-23 -42 -76 -102 -84 -94 -9 9
82 136 97 136 5 0 -1 -19 -13 -42z m1923 3 c0 -6 -4 -13 -10 -16 -5 -3 -10 1
-10 9 0 9 5 16 10 16 6 0 10 -4 10 -9z m-3876 -16 c3 -8 1 -15 -4 -15 -6 0
-10 7 -10 15 0 8 2 15 4 15 2 0 6 -7 10 -15z m3443 -36 c-3 -12 -3 -19 0 -16
3 3 11 1 18 -6 9 -8 9 -15 1 -23 -6 -6 -18 -21 -26 -33 -18 -26 -26 -27 -33 0
-3 12 3 38 15 60 22 43 33 51 25 18z m-88 -40 c-16 -10 -23 -4 -14 10 3 6 11
8 17 5 6 -4 5 -9 -3 -15z m-64 -57 c-11 -11 -22 11 -17 35 l5 28 8 -29 c5 -17
7 -32 4 -34z m32 40 c6 -11 8 -24 3 -31 -5 -9 -10 -10 -14 -2 -4 6 -4 16 -1
21 3 6 1 10 -4 10 -6 0 -11 5 -11 10 0 16 14 12 27 -8z m-3427 -19 c0 -8 5
-11 13 -7 6 4 9 4 5 -1 -4 -4 -2 -15 5 -24 6 -9 -2 -4 -20 9 -39 31 -49 50
-22 43 10 -3 19 -12 19 -20z m2393 12 c-3 -9 -8 -14 -10 -11 -3 3 -2 9 2 15 9
16 15 13 8 -4z m-427 -52 c-8 -15 -15 -22 -16 -15 0 14 22 53 28 47 2 -2 -3
-16 -12 -32z m-1900 -10 c-7 -7 -26 7 -26 19 0 6 6 6 15 -2 9 -7 13 -15 11
-17z m950 -10 c-7 -7 -26 7 -26 19 0 6 6 6 15 -2 9 -7 13 -15 11 -17z m2404
23 c0 -3 -4 -8 -10 -11 -5 -3 -10 -1 -10 4 0 6 5 11 10 11 6 0 10 -2 10 -4z
m70 -61 c0 -2 -9 -3 -20 -2 -10 1 -17 3 -15 5 2 3 0 13 -6 24 -18 33 2 41 22
9 10 -18 19 -33 19 -36z m-3417 23 c3 -10 9 -10 26 0 27 16 26 16 28 -8 1 -11
-2 -18 -8 -15 -5 4 -9 2 -9 -4 0 -5 6 -12 13 -14 6 -3 7 -6 2 -6 -6 -1 -26 12
-45 29 -19 16 -30 29 -23 30 6 0 13 -6 16 -12z m3571 -17 c-8 -16 -21 -35 -29
-41 -10 -8 -8 2 7 29 24 46 45 57 22 12z m-107 -23 c2 -30 -1 -38 -7 -28 -14
22 -11 70 5 70 0 0 2 -19 2 -42z m-527 -28 c0 -5 7 -7 15 -4 8 4 15 1 15 -5 0
-16 -25 -13 -40 4 -9 10 -9 15 -1 15 6 0 11 -4 11 -10z m900 -5 c7 -9 8 -15 2
-15 -5 0 -12 7 -16 15 -3 8 -4 15 -2 15 2 0 9 -7 16 -15z m-340 -5 c0 -5 -5
-10 -11 -10 -5 0 -7 5 -4 10 3 6 8 10 11 10 2 0 4 -4 4 -10z m-3395 -20 c10
-11 16 -20 13 -20 -3 0 -13 9 -23 20 -10 11 -16 20 -13 20 3 0 13 -9 23 -20z
m2235 0 c-10 -7 -11 -10 -2 -10 6 0 12 -4 12 -10 0 -5 -9 -10 -20 -10 -11 0
-20 3 -20 7 0 11 33 43 39 38 3 -4 -1 -10 -9 -15z m-1940 -11 c0 -4 -7 -6 -15
-3 -8 4 -15 10 -15 15 0 4 7 6 15 3 8 -4 15 -10 15 -15z m2554 -5 c5 -14 4
-15 -9 -4 -17 14 -19 20 -6 20 5 0 12 -7 15 -16z m-2559 -15 c20 -17 29 -19
35 -9 5 8 8 3 8 -14 0 -37 17 -53 52 -48 16 2 30 2 30 -1 0 -2 -14 -7 -30 -9
-21 -3 -38 2 -52 14 -12 10 -28 16 -36 13 -7 -3 -19 -5 -25 -6 -7 0 -3 -4 8
-9 18 -8 18 -9 -5 -9 -36 -1 -55 32 -40 70 15 35 19 35 55 8z m-545 -29 c0 -5
-2 -10 -4 -10 -3 0 -8 5 -11 10 -3 6 -1 10 4 10 6 0 11 -4 11 -10z m231 -32
c6 -11 4 -18 -8 -23 -10 -3 -14 -3 -10 1 4 4 2 13 -4 20 -6 8 -8 22 -4 31 6
15 8 15 13 3 2 -8 9 -22 13 -32z m2729 22 c0 -5 -2 -10 -4 -10 -3 0 -8 5 -11
10 -3 6 -1 10 4 10 6 0 11 -4 11 -10z m-1494 -15 c-7 -18 32 -36 64 -30 18 3
20 2 10 -10 -10 -12 -7 -13 22 -9 18 3 40 6 48 6 8 1 18 5 21 11 4 6 19 5 41
-2 18 -6 45 -11 58 -10 39 1 113 -12 137 -23 16 -8 34 -8 65 1 24 7 58 13 76
13 17 1 32 5 32 10 0 4 5 8 11 8 5 0 7 -4 4 -10 -4 -6 7 -10 27 -10 22 0 29 3
20 9 -10 6 -7 10 12 13 30 6 40 0 26 -16 -6 -9 6 -12 46 -14 39 -2 53 1 52 10
-3 15 35 12 40 -3 2 -5 12 1 22 13 l19 23 -6 -22 c-3 -13 -1 -23 5 -23 5 0 12
9 15 20 3 11 13 20 22 20 9 0 15 -6 12 -12 -2 -7 -10 -12 -16 -11 -6 2 -11 -1
-11 -6 0 -5 12 -8 26 -8 14 0 31 -6 37 -12 9 -9 0 -12 -38 -12 -27 1 -59 1
-70 1 -81 -2 -999 -2 -1147 0 -65 1 -120 5 -123 11 -4 5 11 9 32 9 21 0 66 6
100 13 34 8 72 12 85 10 13 -2 28 -4 33 -5 6 0 21 2 35 6 19 6 21 5 10 -3 -12
-9 -10 -11 10 -11 14 -1 58 -3 98 -5 39 -2 72 0 72 5 0 4 -8 7 -17 6 -10 0
-17 4 -16 11 4 17 -27 25 -33 8 -8 -19 -24 -19 -24 0 0 8 6 15 14 15 7 0 19 7
26 15 16 19 24 19 16 0z m314 5 c0 -5 -7 -7 -15 -4 -8 4 -15 8 -15 10 0 2 7 4
15 4 8 0 15 -4 15 -10z m2467 -14 c-3 -8 -1 -17 6 -19 8 -3 7 -10 -5 -22 -20
-21 -100 -25 -106 -5 -3 9 -6 9 -13 -1 -6 -9 -9 -10 -9 -2 0 19 16 24 43 14
37 -14 67 -3 67 25 0 13 5 24 11 24 6 0 9 -6 6 -14z m-1970 -2 c-3 -3 -12 -4
-19 -1 -8 3 -5 6 6 6 11 1 17 -2 13 -5z m708 -18 c9 -13 26 -27 38 -30 18 -5
19 -8 8 -15 -13 -9 -298 -15 -290 -6 2 2 6 3 9 3 3 1 17 5 33 11 15 6 27 7 27
2 0 -5 9 -7 20 -4 11 3 20 9 20 14 0 5 5 9 11 9 5 0 7 -5 4 -11 -5 -6 9 -9 40
-8 25 2 48 6 51 11 3 4 0 8 -5 8 -6 0 -11 9 -11 20 0 27 26 25 45 -4z m-2555
10 c0 -2 -9 -6 -20 -9 -11 -3 -20 -1 -20 4 0 5 9 9 20 9 11 0 20 -2 20 -4z
m328 -3 c-10 -2 -26 -2 -35 0 -10 3 -2 5 17 5 19 0 27 -2 18 -5z m164 -9 c-24
-17 -39 -14 -27 5 3 6 16 11 28 11 l21 0 -22 -16z m75 10 c-3 -3 -12 -4 -19
-1 -8 3 -5 6 6 6 11 1 17 -2 13 -5z m46 -1 c-7 -2 -19 -2 -25 0 -7 3 -2 5 12
5 14 0 19 -2 13 -5z m660 0 c-7 -2 -19 -2 -25 0 -7 3 -2 5 12 5 14 0 19 -2 13
-5z m174 -8 c0 -8 -7 -15 -15 -15 -12 0 -12 3 -2 15 7 8 13 15 15 15 1 0 2 -7
2 -15z m2343 6 c3 -1 -1 -5 -9 -10 -16 -10 -44 -3 -36 9 3 5 13 7 23 5 9 -2
19 -4 22 -4z m-2005 -23 c6 -4 2 -8 -7 -8 -10 0 -18 7 -18 17 0 9 3 12 8 7 4
-5 12 -12 17 -16z m195 -1 c0 -7 -4 -6 -10 3 -8 12 -10 12 -10 1 0 -8 -3 -12
-6 -8 -9 9 6 28 17 22 5 -4 9 -12 9 -18z m44 2 c-8 -13 -21 -11 -27 5 -4 10 0
12 14 9 10 -3 16 -9 13 -14z m146 6 c0 -18 -20 -20 -21 -2 0 10 -2 10 -6 0 -2
-7 -11 -13 -19 -13 -8 0 -11 6 -8 15 4 8 17 15 30 15 15 0 24 -6 24 -15z m44
6 c3 -5 -2 -11 -12 -13 -11 -3 -19 0 -19 8 0 16 23 19 31 5z m-2311 -8 c-7 -2
-19 -2 -25 0 -7 3 -2 5 12 5 14 0 19 -2 13 -5z m3443 -30 c-7 -7 -26 7 -26 19
0 6 6 6 15 -2 9 -7 13 -15 11 -17z m334 17 c0 -5 -4 -10 -10 -10 -5 0 -10 5
-10 10 0 6 5 10 10 10 6 0 10 -4 10 -10z m-4050 -10 c0 -5 -7 -10 -15 -10 -8
0 -15 5 -15 10 0 6 7 10 15 10 8 0 15 -4 15 -10z m390 -9 c0 -3 -17 -5 -37 -4
-53 2 -53 2 -53 11 0 4 20 6 45 4 25 -2 45 -7 45 -11z m2085 -9 c-3 -3 -11 0
-18 7 -9 10 -8 11 6 5 10 -3 15 -9 12 -12z m103 4 c3 -3 -12 -5 -32 -4 -20 1
-36 5 -36 9 0 8 59 3 68 -5z m605 7 c-7 -2 -21 -2 -30 0 -10 3 -4 5 12 5 17 0
24 -2 18 -5z m107 -18 c0 -2 -26 -3 -57 -3 -42 1 -50 3 -28 7 28 6 85 3 85 -4z
m-120 -5 c0 -6 -16 -10 -36 -10 -19 0 -33 3 -31 8 8 11 67 13 67 2z m150 0 c0
-5 -5 -10 -11 -10 -5 0 -7 5 -4 10 3 6 8 10 11 10 2 0 4 -4 4 -10z m-2296 -11
c-6 -11 -54 -12 -54 -1 0 4 13 7 30 8 16 1 27 -3 24 -7z m1885 0 c-18 -11 -39
-11 -39 0 0 5 12 9 26 9 18 0 22 -3 13 -9z m51 1 c0 -5 -7 -10 -15 -10 -8 0
-15 5 -15 10 0 6 7 10 15 10 8 0 15 -4 15 -10z m107 4 c-9 -9 -97 -11 -97 -2
0 5 23 8 52 8 28 0 49 -3 45 -6z m-2450 -11 c-41 -4 -48 -7 -42 -21 5 -13 3
-14 -6 -5 -20 20 1 33 49 31 l47 -2 -48 -3z m490 1 c-3 -3 -12 -4 -19 -1 -8 3
-5 6 6 6 11 1 17 -2 13 -5z m1273 -4 c0 -5 -2 -10 -4 -10 -3 0 -8 5 -11 10 -3
6 -1 10 4 10 6 0 11 -4 11 -10z m-570 -10 c0 -5 -7 -10 -16 -10 -8 0 -12 5 -9
10 3 6 10 10 16 10 5 0 9 -4 9 -10z m-220 -11 c13 -9 13 -10 -2 -6 -9 3 -19 1
-22 -6 -2 -7 -5 -4 -5 6 -1 20 7 21 29 6z m2025 1 c3 -5 1 -10 -4 -10 -6 0
-11 5 -11 10 0 6 2 10 4 10 3 0 8 -4 11 -10z m325 6 c0 -3 -4 -8 -10 -11 -5
-3 -10 -1 -10 4 0 6 5 11 10 11 6 0 10 -2 10 -4z m600 -6 c0 -5 -4 -10 -10
-10 -5 0 -10 5 -10 10 0 6 5 10 10 10 6 0 10 -4 10 -10z m30 6 c0 -3 -4 -8
-10 -11 -5 -3 -10 -1 -10 4 0 6 5 11 10 11 6 0 10 -2 10 -4z m-3580 -16 c0 -5
-2 -10 -4 -10 -3 0 -8 5 -11 10 -3 6 -1 10 4 10 6 0 11 -4 11 -10z m127 -20
c53 0 94 -3 91 -6 -4 -3 -37 -9 -75 -13 l-68 -8 55 -2 c64 -2 100 -10 100 -22
0 -5 -8 -9 -19 -9 -29 0 -47 -28 -33 -51 7 -10 12 -31 11 -46 -1 -27 -1 -27
-14 7 -10 27 -14 30 -14 13 -1 -21 -54 -83 -72 -83 -5 0 -9 -5 -9 -11 0 -7
-18 -31 -39 -54 -31 -33 -41 -40 -46 -28 -3 9 1 26 10 39 14 21 14 28 0 61
-25 58 -39 60 -45 5 l-5 -47 -14 40 c-8 22 -20 44 -27 48 -16 9 -19 53 -5 61
5 3 14 -8 21 -24 15 -36 29 -31 22 6 -4 23 -2 26 12 21 10 -4 24 -7 31 -7 7 0
16 -11 19 -25 7 -27 26 -34 26 -10 0 8 6 15 13 16 10 0 10 2 0 6 -7 2 -13 10
-13 16 0 6 -8 27 -17 48 l-18 38 -120 -4 c-112 -4 -173 5 -135 19 16 6 246 13
268 9 8 -2 57 -3 109 -3z m1941 3 c-10 -2 -28 -2 -40 0 -13 2 -5 4 17 4 22 1
32 -1 23 -4z m69 1 c-3 -3 -12 -4 -19 -1 -8 3 -5 6 6 6 11 1 17 -2 13 -5z
m-2650 -10 c-3 -3 -12 -4 -19 -1 -8 3 -5 6 6 6 11 1 17 -2 13 -5z m187 -3 c3
-5 -24 -7 -64 -5 -43 2 -68 -1 -65 -7 4 -5 -1 -9 -9 -9 -19 0 -21 17 -3 23 25
8 136 7 141 -2z m1046 -37 c0 -18 -12 -24 -25 -14 -9 7 -28 7 -61 0 -26 -6
-50 -7 -53 -3 -3 4 -12 8 -18 9 -58 5 -59 5 -38 13 30 12 195 8 195 -5z
m-1817 -17 c3 -7 3 -33 0 -58 -2 -24 -5 -50 -5 -58 -1 -7 -16 -20 -34 -27 -43
-18 -44 -18 -44 6 0 11 -4 20 -8 20 -14 0 -42 57 -42 85 0 23 3 26 20 21 11
-3 29 -9 40 -12 15 -5 20 -2 20 11 0 11 5 15 15 11 8 -3 15 -1 15 4 0 15 17
12 23 -3z m592 -58 c11 -58 -27 -78 -45 -23 -14 41 6 83 28 61 7 -7 15 -24 17
-38z m2182 -1 c-2 -13 -4 -5 -4 17 -1 22 1 32 4 23 2 -10 2 -28 0 -40z m436
37 c-3 -9 -8 -14 -10 -11 -3 3 -2 9 2 15 9 16 15 13 8 -4z m-2946 -47 c-2 -13
-4 -5 -4 17 -1 22 1 32 4 23 2 -10 2 -28 0 -40z m1390 10 c1 -10 -5 -18 -13
-18 -9 0 -14 11 -14 30 0 25 3 28 13 19 7 -7 14 -21 14 -31z m-867 3 c0 -13 2
-13 9 -3 6 10 10 7 13 -11 3 -14 1 -32 -3 -39 -6 -9 -9 -8 -9 7 0 15 -2 17 -9
6 -12 -18 -51 16 -51 45 0 17 5 20 25 16 14 -2 25 -11 25 -21z m113 3 c-2 -10
-5 -43 -9 -71 -5 -37 -3 -53 5 -53 6 0 11 -11 11 -24 0 -33 17 -43 23 -14 3
14 5 8 6 -15 0 -21 5 -36 11 -32 12 7 35 -68 27 -89 -11 -28 -34 -18 -41 18
-4 19 -14 40 -22 47 -37 31 -86 161 -65 174 16 9 13 25 -4 25 -8 0 -15 5 -15
11 0 6 7 9 15 5 8 -3 15 -1 15 5 0 15 24 39 35 35 6 -2 9 -12 8 -22z m74 -21
c-3 -10 -5 -2 -5 17 0 19 2 27 5 18 2 -10 2 -26 0 -35z m-528 15 c6 -18 9 -19
14 -5 4 10 11 17 18 17 6 0 8 -7 5 -15 -3 -9 1 -18 9 -21 8 -4 15 -12 15 -19
0 -7 5 -15 10 -17 15 -5 41 -82 29 -86 -14 -5 -47 39 -55 72 -4 21 -8 25 -15
15 -6 -10 -10 -9 -16 8 -4 12 -12 22 -18 23 -13 1 -26 50 -14 50 5 0 13 -10
18 -22z m1031 -10 c0 -37 -17 -44 -41 -17 -28 32 -24 49 11 46 25 -2 30 -6 30
-29z m137 10 c-3 -8 -6 -5 -6 6 -1 11 2 17 5 13 3 -3 4 -12 1 -19z m-627 -175
c0 -10 -4 -14 -8 -8 -4 6 -11 13 -16 18 -5 4 -2 7 7 7 10 0 17 -8 17 -17z m45
-41 c6 -4 12 -17 12 -29 1 -16 -2 -20 -14 -16 -11 4 -14 2 -9 -5 4 -7 2 -12
-3 -12 -6 0 -11 16 -11 35 0 35 6 41 25 27z m135 -42 c0 -5 -2 -10 -4 -10 -3
0 -8 5 -11 10 -3 6 -1 10 4 10 6 0 11 -4 11 -10z m9 -110 c0 -26 -2 -31 -9
-20 -5 8 -9 35 -9 60 1 37 2 41 9 20 4 -14 8 -41 9 -60z m-1135 33 c6 -15 8
-15 17 -3 8 12 12 12 16 2 3 -8 9 -10 16 -3 7 5 24 7 38 4 22 -4 25 -9 21 -31
-3 -15 -9 -32 -14 -39 -7 -9 -2 -14 17 -19 25 -6 26 -9 20 -48 -4 -22 -7 -50
-8 -61 -2 -17 -10 -20 -57 -22 -44 -1 -49 0 -25 7 l30 8 -36 1 -36 1 -1 54 c0
30 -3 69 -7 87 -12 53 -14 79 -5 79 4 0 11 -8 14 -17z m3773 -43 c-3 -39 -27
-50 -27 -11 0 15 3 31 7 34 14 15 22 6 20 -23z m-250 -57 c-3 -10 -5 -4 -5 12
0 17 2 24 5 18 2 -7 2 -21 0 -30z m-3017 7 c0 -5 -5 -10 -11 -10 -5 0 -7 5 -4
10 3 6 8 10 11 10 2 0 4 -4 4 -10z m2790 -47 c0 -21 -3 -24 -9 -13 -6 8 -7 18
-5 22 3 4 -3 5 -13 2 -15 -5 -16 -4 -3 5 23 17 30 13 30 -16z m-20 -7 c0 -3
-4 -8 -10 -11 -5 -3 -10 -1 -10 4 0 6 5 11 10 11 6 0 10 -2 10 -4z m53 -31
c-3 -10 1 -15 13 -16 18 0 17 -1 -1 -9 -11 -5 -14 -9 -7 -9 17 -1 15 -31 -3
-31 -8 0 -15 3 -16 8 0 4 -2 20 -4 36 -2 16 -2 33 1 38 9 14 24 -1 17 -17z
m-2697 -30 c1 -29 -11 -33 -21 -8 -3 10 -1 19 4 21 6 2 8 9 4 15 -3 7 -2 8 3
4 4 -4 9 -19 10 -32z m2284 25 c0 -5 -2 -10 -4 -10 -3 0 -8 5 -11 10 -3 6 -1
10 4 10 6 0 11 -4 11 -10z m-3093 -6 c-3 -3 -12 -4 -19 -1 -8 3 -5 6 6 6 11 1
17 -2 13 -5z m360 0 c-3 -3 -12 -4 -19 -1 -8 3 -5 6 6 6 11 1 17 -2 13 -5z
m3733 -9 c0 -8 -5 -15 -11 -15 -5 0 -7 5 -3 12 4 7 3 8 -4 4 -7 -4 -12 -18
-12 -32 0 -13 -4 -24 -10 -24 -5 0 -10 16 -10 35 0 31 3 35 25 35 16 0 25 -6
25 -15z m-3724 -34 c-5 -8 -56 -3 -56 5 0 2 14 4 31 4 16 0 28 -4 25 -9z
m3179 -22 c-4 -5 -18 -9 -33 -9 l-27 0 25 14 c26 13 44 11 35 -5z m-485 7 c0
-3 -4 -8 -10 -11 -5 -3 -10 -1 -10 4 0 6 5 11 10 11 6 0 10 -2 10 -4z m250 0
c0 -2 -7 -6 -15 -10 -8 -3 -15 -1 -15 4 0 6 7 10 15 10 8 0 15 -2 15 -4z
m-2877 -13 c-7 -2 -19 -2 -25 0 -7 3 -2 5 12 5 14 0 19 -2 13 -5z m2920 -20
c-7 -2 -19 -2 -25 0 -7 3 -2 5 12 5 14 0 19 -2 13 -5z m194 -9 c-3 -3 -12 -4
-19 -1 -8 3 -5 6 6 6 11 1 17 -2 13 -5z m-1257 -18 c0 -3 -4 -8 -10 -11 -5 -3
-10 -1 -10 4 0 6 5 11 10 11 6 0 10 -2 10 -4z m1330 -31 c0 -9 -6 -12 -15 -9
-8 4 -15 10 -15 15 0 5 7 9 15 9 8 0 15 -7 15 -15z m-1233 -61 c-3 -3 -12 -4
-19 -1 -8 3 -5 6 6 6 11 1 17 -2 13 -5z m1283 -4 c0 -5 -6 -10 -14 -10 -8 0
-18 5 -21 10 -3 6 3 10 14 10 12 0 21 -4 21 -10z m-1162 -7 c-10 -2 -26 -2
-35 0 -10 3 -2 5 17 5 19 0 27 -2 18 -5z m-78 -197 c0 -3 -4 -8 -10 -11 -5 -3
-10 -1 -10 4 0 6 5 11 10 11 6 0 10 -2 10 -4z"/>
<path d="M1391 2736 c7 -15 15 -23 17 -16 3 7 -3 19 -13 28 -15 16 -16 15 -4
-12z"/>
<path d="M1390 2495 c0 -11 5 -27 10 -35 8 -12 10 -12 10 5 0 11 -5 27 -10 35
-8 12 -10 12 -10 -5z"/>
<path d="M3537 3701 c-4 -17 -3 -21 5 -13 5 5 8 16 6 23 -3 8 -7 3 -11 -10z"/>
<path d="M1698 3703 c7 -3 16 -2 19 1 4 3 -2 6 -13 5 -11 0 -14 -3 -6 -6z"/>
<path d="M2373 3689 c-6 -6 -9 -18 -6 -25 4 -11 10 -9 24 7 11 12 19 24 19 26
0 8 -27 2 -37 -8z"/>
<path d="M2345 3650 c3 -5 8 -10 11 -10 2 0 4 5 4 10 0 6 -5 10 -11 10 -5 0
-7 -4 -4 -10z"/>
<path d="M1076 3623 c-6 -14 -5 -15 5 -6 7 7 10 15 7 18 -3 3 -9 -2 -12 -12z"/>
<path d="M2586 3553 c-6 -14 -5 -15 5 -6 7 7 10 15 7 18 -3 3 -9 -2 -12 -12z"/>
<path d="M1372 3503 c5 -17 -23 -52 -37 -47 -11 5 -15 -2 -15 -26 0 -24 4 -31
14 -27 10 4 13 1 10 -8 -3 -8 -11 -13 -17 -12 -14 2 -10 -38 5 -66 12 -24 20
-16 24 25 9 88 17 119 35 142 l20 26 -20 0 c-12 0 -20 -3 -19 -7z"/>
<path d="M2684 3397 c-3 -9 -12 -13 -19 -11 -7 3 -15 1 -19 -4 -8 -13 32 -8
46 6 6 6 9 15 5 18 -4 4 -9 0 -13 -9z"/>
<path d="M4160 3385 c13 -16 13 -18 0 -10 -8 5 -32 10 -53 11 -31 2 -36 0 -26
-12 6 -8 17 -14 25 -14 7 0 16 -5 20 -12 4 -7 3 -8 -4 -4 -7 4 -12 5 -12 2 0
-6 48 -28 88 -40 17 -6 21 -4 16 9 -8 20 23 15 92 -15 87 -38 114 -55 110 -66
-3 -7 4 -14 15 -17 12 -3 22 0 26 9 4 11 10 11 36 -3 36 -19 80 -26 72 -12 -4
5 3 9 14 9 30 0 26 -14 -6 -27 l-28 -11 33 -1 c18 -1 31 -5 28 -10 -4 -6 -19
-6 -39 0 -41 11 -107 19 -107 13 0 -3 18 -13 40 -23 22 -10 37 -21 33 -24 -3
-4 -1 -7 5 -7 7 0 12 5 12 11 0 6 9 8 23 3 31 -9 32 -11 16 -31 -7 -10 -10
-15 -5 -11 5 4 18 1 30 -7 28 -20 44 -19 42 3 -1 12 6 17 24 17 28 0 53 -26
44 -48 -7 -19 66 -81 80 -67 6 6 16 -1 28 -21 10 -17 24 -28 31 -26 7 2 19 1
27 -4 12 -5 16 -2 17 12 1 10 -2 21 -8 24 -5 4 -9 1 -9 -5 0 -6 -4 -9 -10 -5
-18 11 1 33 35 39 36 7 99 -13 150 -48 l30 -20 -19 22 c-11 12 -14 22 -8 22 6
0 18 -10 26 -22 18 -26 18 -26 21 27 l3 41 -79 39 c-43 21 -89 40 -101 42 -12
2 -29 10 -37 17 -24 21 -62 30 -59 15 4 -17 -31 -24 -46 -9 -8 8 -6 9 7 4 14
-5 18 -2 15 12 -2 11 -7 22 -13 26 -15 11 -37 10 -30 -2 3 -5 2 -10 -4 -10 -5
0 -15 8 -20 18 -10 16 -10 16 -11 -2 0 -18 -1 -19 -20 -1 -11 10 -23 15 -27
11 -9 -9 15 -25 49 -32 15 -4 26 -10 23 -14 -6 -10 -54 0 -80 15 -11 7 -31 15
-45 18 -37 9 -38 47 -2 48 25 0 26 1 6 9 -12 5 -25 13 -29 19 -3 6 -11 11 -16
11 -6 0 -8 -4 -5 -9 11 -17 -101 10 -177 43 -22 10 -36 12 -32 7 11 -19 -47
-10 -112 16 -35 14 -63 28 -63 32 0 4 -15 15 -32 26 -32 18 -33 18 -18 0z
m285 -145 c3 -5 1 -10 -4 -10 -6 0 -11 5 -11 10 0 6 2 10 4 10 3 0 8 -4 11
-10z m235 -95 c0 -8 -2 -15 -4 -15 -2 0 -6 7 -10 15 -3 8 -1 15 4 15 6 0 10
-7 10 -15z m158 -70 c18 -9 44 -18 58 -20 26 -3 45 -14 26 -16 -33 -2 -69 -1
-82 3 -8 3 -28 10 -45 15 -16 5 -29 15 -27 22 2 8 -3 11 -12 8 -8 -3 -17 0
-19 7 -7 17 51 5 101 -19z m187 -25 c3 -5 1 -10 -4 -10 -6 0 -11 5 -11 10 0 6
2 10 4 10 3 0 8 -4 11 -10z m-35 -4 c0 -2 3 -12 6 -21 6 -14 3 -14 -20 -4 -31
14 -34 29 -6 29 11 0 20 -2 20 -4z m56 -27 c5 -8 9 -8 14 1 5 8 12 7 24 -5 20
-20 22 -43 2 -26 -7 6 -20 9 -28 6 -8 -3 -23 3 -33 15 -16 17 -16 20 -2 20 9
0 19 -5 23 -11z m-191 -39 c10 -11 13 -20 7 -20 -6 0 -16 9 -22 20 -6 11 -9
20 -7 20 2 0 12 -9 22 -20z"/>
<path d="M4428 3384 c6 -3 10 -9 8 -13 -6 -9 40 -8 50 2 4 4 1 7 -7 7 -8 0
-25 3 -39 5 -14 3 -19 3 -12 -1z"/>
<path d="M1871 3354 c0 -11 3 -14 6 -6 3 7 2 16 -1 19 -3 4 -6 -2 -5 -13z"/>
<path d="M3097 3339 c4 -13 8 -18 11 -10 2 7 -1 18 -6 23 -8 8 -9 4 -5 -13z"/>
<path d="M185 3340 c-16 -7 -17 -9 -3 -9 9 -1 20 4 23 9 7 11 7 11 -20 0z"/>
<path d="M4477 3329 c7 -7 15 -10 18 -7 3 3 -2 9 -12 12 -14 6 -15 5 -6 -5z"/>
<path d="M1271 3314 c0 -11 3 -14 6 -6 3 7 2 16 -1 19 -3 4 -6 -2 -5 -13z"/>
<path d="M4075 3310 c3 -5 10 -10 16 -10 5 0 9 5 9 10 0 6 -7 10 -16 10 -8 0
-12 -4 -9 -10z"/>
<path d="M485 3299 c-4 -6 -13 -8 -21 -5 -20 8 -54 -27 -39 -40 22 -18 32 -13
27 14 -4 25 -3 26 10 9 13 -18 15 -17 26 7 11 26 9 36 -3 15z"/>
<path d="M3110 3301 c0 -6 4 -13 10 -16 6 -3 7 1 4 9 -7 18 -14 21 -14 7z"/>
<path d="M3125 3251 c-3 -5 -1 -12 4 -15 5 -3 11 1 15 9 6 16 -9 21 -19 6z"/>
<path d="M3075 3231 c-3 -6 3 -14 13 -20 14 -8 18 -6 19 10 2 20 -21 27 -32
10z"/>
<path d="M3917 3218 c-8 -5 -5 -10 8 -15 19 -8 25 -19 28 -55 2 -25 14 -22 23
5 4 12 12 25 18 29 8 6 7 8 -1 8 -7 0 -13 9 -13 20 0 15 -6 19 -26 18 -14 -1
-30 -6 -37 -10z"/>
<path d="M4670 3226 c0 -2 7 -6 15 -10 8 -3 15 -1 15 4 0 6 -7 10 -15 10 -8 0
-15 -2 -15 -4z"/>
<path d="M4840 3206 c0 -2 14 -14 30 -26 17 -12 30 -19 30 -16 0 2 -13 14 -30
26 -16 12 -30 19 -30 16z"/>
<path d="M3910 3181 c0 -6 4 -13 10 -16 6 -3 7 1 4 9 -7 18 -14 21 -14 7z"/>
<path d="M4010 3160 c0 -5 5 -10 10 -10 6 0 10 5 10 10 0 6 -4 10 -10 10 -5 0
-10 -4 -10 -10z"/>
<path d="M2661 3136 c-1 -16 -3 -17 -18 -5 -16 13 -17 12 -4 -4 16 -20 37 -8
28 15 -4 8 -6 6 -6 -6z"/>
<path d="M3969 3092 c15 -29 81 -77 100 -74 9 2 13 1 9 -3 -4 -4 -1 -14 7 -21
23 -23 27 -16 8 16 -10 17 -23 28 -30 26 -7 -3 -13 -1 -13 5 0 6 -5 7 -10 4
-6 -3 -13 0 -16 8 -3 8 -19 24 -35 36 -28 21 -30 21 -20 3z"/>
<path d="M4510 3072 c0 -5 7 -17 16 -28 14 -17 15 -17 10 -1 -3 10 -6 23 -6
28 0 5 -4 9 -10 9 -5 0 -10 -4 -10 -8z"/>
<path d="M3007 3059 c-22 -13 -22 -26 1 -32 13 -4 11 -5 -5 -6 -22 -1 -29 -12
-23 -36 1 -5 4 -32 5 -60 2 -27 6 -65 10 -82 5 -22 3 -33 -4 -33 -6 0 -11 3
-11 8 0 4 -4 14 -10 22 -7 12 -13 10 -33 -12 -14 -15 -29 -24 -33 -20 -5 4 3
-7 19 -24 31 -35 34 -46 10 -37 -17 6 -17 5 0 -14 9 -11 14 -23 10 -28 -5 -4
-3 -5 4 -2 6 4 18 1 26 -7 8 -9 19 -11 28 -6 8 6 16 4 21 -3 5 -8 8 -7 8 5 0
9 6 19 13 21 6 3 3 6 -7 6 -20 1 -20 1 0 15 12 9 21 11 25 4 4 -7 9 -6 13 1 4
6 2 11 -4 11 -7 0 -10 6 -7 14 3 7 -5 23 -19 35 -15 13 -21 27 -17 37 3 9 1
19 -4 23 -12 7 -25 81 -15 81 4 0 7 12 6 28 0 15 3 30 9 33 11 8 18 57 8 63
-3 2 -14 0 -24 -5z m-17 -324 c0 -7 -7 -15 -15 -19 -15 -5 -22 24 -9 37 9 9
24 -2 24 -18z"/>
<path d="M4556 3051 c-3 -5 1 -14 9 -21 12 -10 15 -10 15 3 0 19 -16 31 -24
18z"/>
<path d="M4690 3029 c0 -5 10 -9 22 -9 12 0 18 3 14 7 -10 11 -36 12 -36 2z"/>
<path d="M153 3009 c-1 -11 2 -19 8 -19 5 0 9 -4 9 -10 0 -5 -7 -10 -15 -10
-8 0 -15 -4 -15 -10 0 -15 16 -12 34 6 21 20 20 37 -2 50 -15 10 -18 8 -19 -7z"/>
<path d="M1182 2993 c3 -11 -23 -56 -39 -68 -12 -9 -11 -11 4 -12 21 -2 68 60
58 76 -7 12 -26 15 -23 4z"/>
<path d="M850 2975 c-10 -12 -9 -15 6 -15 17 0 17 -1 -2 -16 -18 -14 -18 -15
4 -4 17 9 21 15 13 24 -6 7 -8 16 -4 19 3 4 4 7 1 7 -3 0 -11 -7 -18 -15z"/>
<path d="M4547 2983 c-10 -9 -9 -33 1 -33 4 0 8 9 9 20 2 21 0 24 -10 13z"/>
<path d="M3070 2950 c-6 -11 -9 -26 -7 -33 3 -7 10 1 16 17 14 35 7 47 -9 16z"/>
<path d="M4571 2954 c0 -11 3 -14 6 -6 3 7 2 16 -1 19 -3 4 -6 -2 -5 -13z"/>
<path d="M2545 2950 c-3 -5 1 -10 10 -10 9 0 13 5 10 10 -3 6 -8 10 -10 10 -2
0 -7 -4 -10 -10z"/>
<path d="M3108 2926 c-10 -7 -15 -16 -11 -20 4 -4 -3 -9 -15 -13 -19 -4 -22
-12 -20 -36 2 -17 9 -32 15 -35 15 -4 56 61 61 95 3 26 -5 28 -30 9z"/>
<path d="M4067 2919 c12 -12 24 -21 27 -18 2 2 -8 13 -22 23 l-27 19 22 -24z"/>
<path d="M40 2921 c0 -5 5 -13 10 -16 6 -3 10 -2 10 4 0 5 -4 13 -10 16 -5 3
-10 2 -10 -4z"/>
<path d="M5075 2920 c3 -5 8 -10 11 -10 2 0 4 5 4 10 0 6 -5 10 -11 10 -5 0
-7 -4 -4 -10z"/>
<path d="M290 2916 c0 -2 8 -10 18 -17 15 -13 16 -12 3 4 -13 16 -21 21 -21
13z"/>
<path d="M2515 2890 c21 -24 26 -25 19 -6 -3 8 -13 17 -22 21 -13 5 -13 2 3
-15z"/>
<path d="M330 2891 c0 -5 7 -15 17 -22 15 -13 15 -12 4 9 -12 23 -21 28 -21
13z"/>
<path d="M4931 2897 c2 -1 13 -9 24 -17 19 -14 19 -14 6 3 -7 9 -18 17 -24 17
-6 0 -8 -1 -6 -3z"/>
<path d="M3212 2874 c10 -10 20 -16 22 -13 3 3 -5 11 -17 18 -21 13 -21 12 -5
-5z"/>
<path d="M3640 2881 c0 -6 5 -13 10 -16 6 -3 10 1 10 9 0 9 -4 16 -10 16 -5 0
-10 -4 -10 -9z"/>
<path d="M4606 2865 c4 -8 8 -15 10 -15 2 0 4 7 4 15 0 8 -4 15 -10 15 -5 0
-7 -7 -4 -15z"/>
<path d="M126 2855 c-7 -20 23 -59 59 -77 14 -6 12 -3 -5 11 -14 11 -19 21
-12 21 9 0 10 3 2 13 -6 6 -17 21 -24 31 -12 18 -13 18 -20 1z"/>
<path d="M4504 2858 c-3 -4 -12 -5 -22 -2 -9 2 -7 -1 6 -7 13 -7 21 -18 18
-24 -5 -15 13 -35 31 -35 8 0 12 13 10 39 -2 31 -6 39 -20 38 -10 -1 -21 -5
-23 -9z m26 -48 c0 -5 -2 -10 -4 -10 -3 0 -8 5 -11 10 -3 6 -1 10 4 10 6 0 11
-4 11 -10z"/>
<path d="M415 2817 c10 -15 20 -25 23 -22 3 3 -5 16 -17 28 l-23 22 17 -28z"/>
<path d="M3050 2814 c0 -2 14 -10 30 -19 17 -9 30 -12 30 -7 0 4 -13 13 -30
19 -16 6 -30 10 -30 7z"/>
<path d="M4680 2810 c-13 -8 -13 -10 -1 -10 8 0 25 -10 38 -22 22 -21 24 -21
17 -3 -7 19 -28 45 -36 45 -2 0 -10 -5 -18 -10z"/>
<path d="M4100 2800 c0 -5 5 -10 11 -10 5 0 7 5 4 10 -3 6 -8 10 -11 10 -2 0
-4 -4 -4 -10z"/>
<path d="M4760 2803 c0 -6 8 -17 18 -24 16 -13 16 -13 2 6 -8 11 -16 22 -17
24 -2 2 -3 0 -3 -6z"/>
<path d="M4430 2790 c0 -5 9 -10 21 -10 11 0 17 5 14 10 -3 6 -13 10 -21 10
-8 0 -14 -4 -14 -10z"/>
<path d="M2210 2769 c-7 -11 -10 -23 -7 -25 2 -2 9 7 15 21 14 30 7 33 -8 4z"/>
<path d="M3616 2761 c-8 -13 32 -31 52 -23 11 4 11 6 1 13 -7 4 -17 5 -22 2
-5 -3 -13 0 -17 7 -5 9 -9 9 -14 1z"/>
<path d="M4700 2761 c0 -4 10 -18 21 -30 17 -18 23 -20 31 -9 7 10 11 10 15 1
2 -7 9 -13 14 -13 6 0 7 5 4 10 -8 13 -85 50 -85 41z"/>
<path d="M2237 2753 c-4 -3 -7 -11 -7 -17 0 -6 5 -5 12 2 6 6 9 14 7 17 -3 3
-9 2 -12 -2z"/>
<path d="M3760 2750 c0 -5 5 -10 10 -10 6 0 10 5 10 10 0 6 -4 10 -10 10 -5 0
-10 -4 -10 -10z"/>
<path d="M4654 2739 c-3 -5 1 -9 9 -9 7 0 14 -7 14 -15 0 -8 -7 -15 -14 -15
-8 0 -12 4 -9 8 3 5 0 9 -7 9 -7 0 -20 4 -31 8 -16 7 -17 6 -7 -14 7 -12 16
-19 21 -16 5 3 11 1 15 -5 4 -6 13 -7 23 -1 10 5 27 5 40 0 27 -10 29 -23 2
-16 -21 5 -27 -7 -9 -19 15 -9 53 31 44 46 -4 6 -16 10 -26 7 -10 -3 -22 -1
-25 4 -3 5 0 9 6 9 17 0 3 17 -20 23 -11 3 -23 1 -26 -4z"/>
<path d="M2248 2713 c7 -3 16 -2 19 1 4 3 -2 6 -13 5 -11 0 -14 -3 -6 -6z"/>
<path d="M3100 2710 c-13 -8 -12 -10 3 -10 9 0 17 5 17 10 0 12 -1 12 -20 0z"/>
<path d="M3525 2700 c3 -5 8 -10 11 -10 2 0 4 5 4 10 0 6 -5 10 -11 10 -5 0
-7 -4 -4 -10z"/>
<path d="M3907 2703 c-10 -9 -9 -23 2 -23 5 0 11 7 15 15 5 15 -5 20 -17 8z"/>
<path d="M4064 2703 c10 -11 37 -12 30 -2 -3 5 -12 9 -21 9 -9 0 -13 -3 -9 -7z"/>
<path d="M3040 2689 c0 -5 5 -7 10 -4 6 3 10 8 10 11 0 2 -4 4 -10 4 -5 0 -10
-5 -10 -11z"/>
<path d="M3590 2688 c0 -5 15 -7 34 -5 19 1 32 4 29 7 -8 8 -63 6 -63 -2z"/>
<path d="M4610 2666 c0 -8 51 -13 56 -5 3 5 -9 9 -25 9 -17 0 -31 -2 -31 -4z"/>
<path d="M2235 2530 c3 -5 8 -10 11 -10 2 0 4 5 4 10 0 6 -5 10 -11 10 -5 0
-7 -4 -4 -10z"/>
<path d="M2678 2524 c-30 -13 -35 -18 -25 -29 8 -8 16 -10 23 -4 19 16 23 -39
5 -74 -21 -42 -17 -151 6 -143 12 5 14 -4 12 -51 -2 -32 -6 -62 -10 -68 -4 -5
-9 -24 -12 -42 -3 -17 -7 -36 -10 -40 -3 -5 -8 -27 -11 -49 -7 -64 -17 -94
-31 -94 -7 0 -15 -13 -17 -30 -4 -25 -1 -30 16 -31 18 -1 17 -2 -4 -8 l-25 -7
30 -8 c27 -8 28 -9 10 -16 -19 -8 -19 -9 3 -9 13 -1 20 -5 17 -11 -3 -6 4 -14
17 -19 13 -6 17 -10 9 -10 -11 -1 -10 -5 5 -16 25 -19 40 -19 24 0 -7 8 -9 15
-5 15 4 0 2 7 -5 15 -7 8 -13 33 -14 55 -1 32 2 40 17 40 10 0 15 -4 12 -10
-3 -5 0 -10 7 -10 11 0 10 -2 0 -9 -11 -7 -10 -9 3 -15 9 -3 13 -10 10 -16 -4
-6 10 -9 37 -9 30 2 35 3 16 6 -49 7 -30 23 30 25 l57 1 -55 7 -55 7 55 2 c39
2 49 5 35 11 -17 6 -15 9 17 15 39 7 48 23 48 83 0 21 5 32 14 32 18 0 14 28
-10 79 -9 19 -19 56 -21 81 -2 25 -10 68 -18 95 -7 28 -19 78 -26 113 -15 72
-29 81 -29 19 0 -24 -7 -53 -17 -67 l-18 -25 -6 30 c-11 48 -10 115 1 135 6
11 8 31 4 45 -5 21 -12 25 -43 24 -20 0 -53 -7 -73 -15z m49 -131 c-3 -10 -5
-4 -5 12 0 17 2 24 5 18 2 -7 2 -21 0 -30z m86 -510 c-7 -2 -19 -2 -25 0 -7 3
-2 5 12 5 14 0 19 -2 13 -5z"/>
<path d="M3826 2525 c-6 -18 2 -45 15 -45 5 0 9 14 9 30 0 32 -14 40 -24 15z"/>
<path d="M4893 2530 c-39 -3 -74 -8 -78 -12 -4 -3 -1 -16 5 -29 7 -12 10 -43
8 -70 -5 -51 7 -67 18 -24 4 14 9 24 11 21 7 -7 38 25 47 49 8 19 8 19 19 -2
5 -13 16 -23 24 -23 7 0 16 -7 20 -16 3 -8 12 -13 19 -10 8 3 14 1 14 -5 0 -6
5 -7 11 -3 9 5 10 -8 5 -49 -8 -60 3 -79 30 -53 8 9 19 16 24 16 4 0 5 29 3
64 l-6 64 27 -5 c25 -5 26 -4 26 40 l0 46 -42 6 c-24 3 -59 5 -78 3 -19 -2
-67 -5 -107 -8z"/>
<path d="M4689 2494 c-1 -47 2 -108 6 -112 11 -11 35 17 45 54 7 25 20 52 28
60 19 19 12 24 -37 31 l-41 6 -1 -39z"/>
<path d="M2622 2495 c0 -16 2 -22 5 -12 2 9 2 23 0 30 -3 6 -5 -1 -5 -18z"/>
<path d="M3616 2483 c9 -50 14 -54 14 -13 0 44 17 28 22 -20 3 -29 4 -27 8 18
5 51 5 52 -23 52 -27 0 -28 -1 -21 -37z"/>
<path d="M4065 2510 c3 -5 8 -10 11 -10 2 0 4 5 4 10 0 6 -5 10 -11 10 -5 0
-7 -4 -4 -10z"/>
<path d="M4120 2510 c0 -5 7 -10 15 -10 8 0 15 5 15 10 0 6 -7 10 -15 10 -8 0
-15 -4 -15 -10z"/>
<path d="M4624 2505 c25 -19 32 -19 40 0 4 11 -2 15 -27 15 -30 -1 -31 -1 -13
-15z"/>
<path d="M2243 2440 c0 -25 2 -35 4 -22 2 12 2 32 0 45 -2 12 -4 2 -4 -23z"/>
<path d="M4517 2383 c-11 -10 -8 -73 3 -73 13 0 32 49 26 67 -6 14 -19 17 -29
6z"/>
<path d="M2227 2322 c-9 -32 -17 -66 -17 -77 0 -22 39 -77 40 -57 3 43 1 184
-2 187 -1 2 -11 -22 -21 -53z"/>
<path d="M2320 2306 c0 -9 5 -16 10 -16 6 0 10 4 10 9 0 6 -4 13 -10 16 -5 3
-10 -1 -10 -9z"/>
<path d="M3647 2296 c-4 -10 -5 -21 -2 -24 9 -9 17 6 13 25 -3 17 -4 17 -11
-1z"/>
<path d="M5108 2254 c-5 -4 -8 -16 -8 -26 0 -11 -4 -16 -10 -13 -5 3 -10 -2
-11 -12 0 -11 -3 -13 -6 -5 -4 10 -8 9 -19 -5 -12 -16 -15 -16 -24 -3 -9 13
-12 13 -21 -3 -17 -30 -50 -37 -82 -18 -25 14 -27 20 -22 49 4 19 2 32 -5 32
-5 0 -10 -7 -10 -16 0 -13 -3 -14 -13 -5 -11 8 -18 6 -32 -10 -23 -24 -66 -45
-120 -58 -37 -8 -38 -9 -10 -10 26 -1 28 -3 12 -12 -12 -7 -16 -17 -11 -31 7
-22 -1 -22 -63 -3 -18 6 -30 0 -53 -25 -17 -18 -36 -30 -44 -27 -26 10 -72
-15 -84 -45 -6 -16 -18 -28 -29 -28 -15 0 -16 -2 -3 -10 11 -7 8 -10 -16 -10
-19 0 -34 -6 -38 -15 -3 -8 -15 -15 -26 -15 -12 0 -19 -4 -15 -9 3 -5 -3 -12
-12 -14 -17 -4 -17 -5 0 -6 9 0 17 -6 17 -12 0 -9 52 -9 220 1 l25 2 -25 8
-25 8 28 1 c16 1 26 5 22 11 -4 6 5 10 21 10 22 0 25 2 14 15 -10 12 -9 15 8
15 11 0 22 7 26 15 4 10 20 15 51 15 25 0 45 4 45 10 0 11 28 9 47 -3 9 -6 11
-3 7 7 -4 9 1 18 10 22 9 3 13 10 10 15 -3 5 12 9 33 8 21 0 32 -3 26 -6 -7
-2 -13 -9 -13 -14 0 -14 89 34 90 49 0 6 9 12 19 12 11 0 23 5 26 11 4 6 13 8
21 5 7 -3 18 4 24 15 6 11 15 17 19 15 4 -3 16 0 25 7 13 10 16 25 14 66 -2
29 -6 49 -10 45z m-423 -174 c3 -5 1 -10 -4 -10 -6 0 -11 5 -11 10 0 6 2 10 4
10 3 0 8 -4 11 -10z"/>
<path d="M3200 2230 c-10 -19 -10 -20 9 -8 22 13 28 28 11 28 -5 0 -14 -9 -20
-20z"/>
<path d="M4543 2228 c-7 -8 -10 -18 -6 -21 3 -4 2 -7 -3 -7 -5 0 -11 -15 -12
-32 -3 -46 -11 -68 -24 -65 -14 3 -21 -40 -8 -48 6 -4 10 -3 9 2 -4 23 2 35
16 29 11 -4 17 3 22 24 6 33 13 36 31 18 9 -9 12 1 12 48 0 38 -3 54 -9 45 -7
-11 -10 -10 -12 4 -4 16 -6 16 -16 3z"/>
<path d="M1240 2081 c0 -32 -15 -50 -23 -29 -3 7 -6 1 -6 -14 -1 -14 -5 -28
-10 -30 -5 -1 1 -11 13 -20 15 -11 23 -13 24 -5 8 55 13 127 8 127 -3 0 -6
-13 -6 -29z"/>
<path d="M1230 1950 c-8 -5 -12 -12 -9 -15 4 -3 12 1 19 10 14 17 11 19 -10 5z"/>
<path d="M3030 1900 c19 -13 30 -13 30 0 0 6 -10 10 -22 10 -19 0 -20 -2 -8
-10z"/>
<path d="M1268 1873 c7 -3 16 -2 19 1 4 3 -2 6 -13 5 -11 0 -14 -3 -6 -6z"/>
<path d="M4333 1864 c7 -8 108 -7 115 1 3 3 -23 5 -58 5 -35 0 -60 -3 -57 -6z"/>
<path d="M4528 1863 c7 -3 16 -2 19 1 4 3 -2 6 -13 5 -11 0 -14 -3 -6 -6z"/>
<path d="M4458 1853 c-20 -5 -24 -23 -6 -23 17 0 -3 -17 -27 -23 -11 -3 -4 -5
17 -6 37 -1 59 13 36 22 -10 4 -10 6 0 6 6 1 12 8 12 16 0 15 -2 16 -32 8z"/>
<path d="M88 1823 c7 -3 16 -2 19 1 4 3 -2 6 -13 5 -11 0 -14 -3 -6 -6z"/>
<path d="M180 1820 c0 -5 5 -10 11 -10 5 0 7 5 4 10 -3 6 -8 10 -11 10 -2 0
-4 -4 -4 -10z"/>
<path d="M3008 1813 c7 -3 16 -2 19 1 4 3 -2 6 -13 5 -11 0 -14 -3 -6 -6z"/>
<path d="M4078 1783 c6 -2 18 -2 25 0 6 3 1 5 -13 5 -14 0 -19 -2 -12 -5z"/>
<path d="M4153 1783 c9 -2 23 -2 30 0 6 3 -1 5 -18 5 -16 0 -22 -2 -12 -5z"/>
<path d="M4418 1783 c6 -2 18 -2 25 0 6 3 1 5 -13 5 -14 0 -19 -2 -12 -5z"/>
<path d="M4120 1760 c8 -5 22 -9 30 -9 10 0 8 3 -5 9 -27 12 -43 12 -25 0z"/>
<path d="M1868 1733 c7 -3 16 -2 19 1 4 3 -2 6 -13 5 -11 0 -14 -3 -6 -6z"/>
<path d="M3798 1703 c12 -2 32 -2 45 0 12 2 2 4 -23 4 -25 0 -35 -2 -22 -4z"/>
<path d="M3818 1673 c7 -3 16 -2 19 1 4 3 -2 6 -13 5 -11 0 -14 -3 -6 -6z"/>
<path d="M1395 1657 c-17 -13 -17 -14 1 -19 14 -4 20 0 20 13 0 11 -1 19 -1
19 -1 0 -9 -6 -20 -13z"/>
<path d="M1340 1635 c0 -8 4 -15 10 -15 5 0 7 7 4 15 -4 8 -8 15 -10 15 -2 0
-4 -7 -4 -15z"/>
<path d="M792 1613 c-23 -2 -40 -8 -37 -14 10 -15 75 -11 91 6 12 11 12 15 2
13 -7 -1 -32 -3 -56 -5z"/>
<path d="M708 1593 c6 -2 18 -2 25 0 6 3 1 5 -13 5 -14 0 -19 -2 -12 -5z"/>
<path d="M823 1573 c9 -2 23 -2 30 0 6 3 -1 5 -18 5 -16 0 -22 -2 -12 -5z"/>
<path d="M3328 1453 c7 -3 16 -2 19 1 4 3 -2 6 -13 5 -11 0 -14 -3 -6 -6z"/>
<path d="M1718 1443 c12 -2 30 -2 40 0 9 3 -1 5 -23 4 -22 0 -30 -2 -17 -4z"/>
<path d="M3433 1434 c9 -9 106 -11 120 -2 7 4 -19 8 -57 8 -38 0 -67 -3 -63
-6z"/>
<path d="M2718 1373 c12 -2 30 -2 40 0 9 3 -1 5 -23 4 -22 0 -30 -2 -17 -4z"/>
<path d="M5010 1250 c0 -5 7 -10 15 -10 8 0 15 -6 15 -12 0 -20 -80 -18 -81 2
0 10 -2 11 -6 3 -2 -7 -12 -13 -21 -13 -15 0 -15 -2 -2 -10 21 -13 -115 -13
-140 0 -14 7 -21 6 -27 -4 -13 -23 -50 -23 -68 -1 -16 20 -16 19 -9 -4 5 -21
4 -23 -12 -16 -41 16 -55 17 -89 1 -20 -10 -45 -14 -58 -11 -18 5 -19 4 -7 -5
12 -9 8 -11 -17 -7 -29 3 -33 1 -33 -20 0 -13 -4 -23 -10 -23 -5 0 -10 14 -10
30 0 26 -3 29 -17 22 -10 -5 -39 -8 -65 -6 -34 2 -48 -1 -52 -12 -5 -12 -2
-12 15 -4 16 9 26 8 47 -6 15 -10 21 -19 15 -21 -7 -3 -10 -10 -7 -18 9 -23
-14 -27 -36 -5 -21 21 -50 27 -50 10 0 -5 9 -10 19 -10 14 0 18 -5 14 -19 -4
-16 -9 -18 -38 -10 -44 13 -73 7 -90 -18 -14 -19 -13 -21 5 -16 11 3 17 9 14
14 -3 5 0 9 5 9 6 0 11 -4 11 -10 0 -5 10 -10 23 -11 21 0 21 -1 2 -9 -22 -8
-683 -15 -903 -8 -73 2 -135 1 -138 -3 -2 -4 -19 -6 -37 -5 -17 1 -40 -2 -49
-6 -14 -7 -18 -4 -18 9 0 14 -2 15 -9 4 -5 -8 -23 -14 -40 -15 -21 -1 -30 -5
-26 -13 2 -7 0 -13 -5 -13 -6 0 -10 4 -10 9 0 23 -54 42 -129 45 -43 2 -83 6
-90 10 -6 4 -11 2 -11 -3 0 -6 8 -11 17 -11 14 0 15 -2 4 -12 -10 -11 -15 -9
-27 7 -12 16 -18 18 -34 7 -12 -7 -20 -8 -20 -2 0 14 -16 12 -32 -3 -14 -14
-38 -12 -38 4 0 4 7 6 15 3 8 -4 15 -1 15 5 0 14 -6 14 -60 -4 -35 -12 -38
-14 -12 -10 18 2 31 1 28 -4 -9 -14 -267 -12 -260 2 3 7 -3 2 -14 -10 -19 -22
-60 -33 -47 -14 7 13 -316 11 -333 -2 -15 -12 -151 -16 -158 -6 -5 9 -60 10
-88 2 -15 -4 -16 -7 -5 -15 10 -7 6 -8 -13 -4 -15 3 -30 1 -33 -5 -4 -6 -13
-8 -21 -5 -8 3 -14 1 -14 -4 0 -6 -7 -10 -15 -10 -8 0 -15 4 -15 8 0 12 -72
14 -80 2 -5 -8 -438 -16 -570 -11 -8 0 -86 -1 -172 -2 -87 -2 -158 1 -158 5 0
17 -18 7 -23 -12 -3 -11 -11 -20 -17 -20 -9 0 -10 3 -1 13 8 11 5 14 -20 14
-23 0 -29 -4 -24 -16 3 -9 -4 -5 -15 8 -15 18 -23 21 -33 12 -9 -7 -17 -7 -24
0 -6 6 -18 6 -34 -1 l-24 -10 24 3 c13 1 26 -2 28 -8 5 -16 -167 -22 -292 -10
-38 3 -99 7 -135 8 l-65 2 -3 -467 -2 -468 2560 0 2560 0 0 610 0 609 -36 7
c-19 4 -38 13 -41 20 -6 16 -33 19 -33 4z m-345 -92 c6 -4 2 -8 -7 -8 -10 0
-18 7 -18 17 0 9 3 12 8 7 4 -5 12 -12 17 -16z m-125 -46 c3 -2 -4 -3 -15 -1
-11 1 -28 -1 -38 -6 -10 -4 -21 -4 -24 -1 -4 4 3 9 15 13 12 3 22 10 22 15 0
6 8 4 18 -3 9 -7 19 -15 22 -17z m-103 -8 c-3 -3 -12 -4 -19 -1 -8 3 -5 6 6 6
11 1 17 -2 13 -5z m-1462 -104 c6 -1 -3 -5 -20 -9 -37 -9 -115 -2 -115 10 0 7
93 6 135 -1z m-933 -22 c-9 -9 -15 -9 -24 0 -9 9 -7 12 12 12 19 0 21 -3 12
-12z m348 -8 c-8 -5 -19 -10 -25 -10 -5 0 -3 5 5 10 8 5 20 10 25 10 6 0 3 -5
-5 -10z m918 -7 c-10 -2 -26 -2 -35 0 -10 3 -2 5 17 5 19 0 27 -2 18 -5z m308
0 c-10 -10 -46 -11 -40 -1 3 4 15 8 26 8 12 0 18 -3 14 -7z"/>
<path d="M5078 1248 c9 -9 15 -9 24 0 9 9 7 12 -12 12 -19 0 -21 -3 -12 -12z"/>
<path d="M4735 1230 c-4 -6 -11 -8 -16 -5 -5 4 -9 2 -9 -4 0 -5 5 -13 10 -16
6 -3 10 -1 10 4 0 6 7 11 15 11 8 0 15 5 15 10 0 13 -17 13 -25 0z"/>
<path d="M2328 1033 c7 -3 16 -2 19 1 4 3 -2 6 -13 5 -11 0 -14 -3 -6 -6z"/>
<path d="M1425 990 c-18 -8 -18 -9 5 -8 14 0 36 -3 50 -7 24 -6 24 -6 6 9 -22
18 -32 19 -61 6z"/>
<path d="M1566 991 c-4 -5 3 -7 14 -4 23 6 26 13 6 13 -8 0 -17 -4 -20 -9z"/>
<path d="M1650 990 c0 -5 5 -10 10 -10 6 0 10 5 10 10 0 6 -4 10 -10 10 -5 0
-10 -4 -10 -10z"/>
<path d="M1680 990 c0 -5 7 -10 15 -10 8 0 15 5 15 10 0 6 -7 10 -15 10 -8 0
-15 -4 -15 -10z"/>
<path d="M1516 975 c-4 -13 -2 -14 14 -5 23 13 26 20 6 20 -8 0 -16 -7 -20
-15z"/>
<path d="M320 942 c0 -5 14 -7 30 -4 17 2 30 6 30 8 0 2 -13 4 -30 4 -16 0
-30 -4 -30 -8z"/>
</g>
</svg>
